<svg width="1245" height="318" viewBox="0 0 1245 318" fill="none" xmlns="http://www.w3.org/2000/svg">
<path d="M1238.14 128.488C1234.93 128.488 1232.35 130.913 1232.06 133.945H1173.82C1173.57 130.913 1170.95 128.488 1167.75 128.488C1166.83 128.488 1165.96 128.69 1165.17 129.054L1136.07 80.1102C1137.65 79.0189 1138.69 77.2406 1138.69 75.2198C1138.69 73.199 1137.65 71.4207 1136.07 70.3295L1165.17 21.4258C1165.96 21.7896 1166.83 21.9917 1167.75 21.9917C1171.12 21.9917 1173.87 19.3242 1173.87 16.0505C1173.87 12.7768 1171.12 10.1093 1167.75 10.1093C1164.37 10.1093 1161.63 12.7768 1161.63 16.0505C1161.63 18.0713 1162.67 19.89 1164.29 20.9408L1135.19 69.8445C1134.4 69.4807 1133.53 69.2786 1132.61 69.2786C1129.41 69.2786 1126.82 71.7036 1126.53 74.7348H1068.29C1068.05 71.7036 1065.42 69.2786 1062.22 69.2786C1061.3 69.2786 1060.43 69.4807 1059.64 69.8445L1030.54 20.86C1032.12 19.7688 1033.16 18.0309 1033.16 16.01C1033.16 13.9892 1032.12 12.2513 1030.54 11.1601L1059.64 -37.7839C1060.43 -37.4202 1061.3 -37.2181 1062.22 -37.2181C1065.59 -37.2181 1068.34 -39.8856 1068.34 -43.1593C1068.34 -46.433 1065.59 -49.1005 1062.22 -49.1005C1058.85 -49.1005 1056.1 -46.433 1056.1 -43.1593C1056.1 -41.1385 1057.14 -39.3602 1058.72 -38.2689L1029.62 10.6751C1028.83 10.3114 1027.91 10.0689 1027 10.0689C1023.79 10.0689 1021.21 12.4939 1020.92 15.5251H962.683C962.433 12.4939 959.81 10.0689 956.605 10.0689C955.689 10.0689 954.815 10.271 954.024 10.6347L924.925 -38.2689C926.507 -39.3602 927.548 -41.1385 927.548 -43.1593C927.548 -46.433 924.801 -49.1005 921.429 -49.1005C918.057 -49.1005 915.309 -46.433 915.309 -43.1593C915.309 -39.8856 918.057 -37.2181 921.429 -37.2181C922.344 -37.2181 923.219 -37.4202 924.01 -37.7839L953.108 11.1197C951.485 12.2109 950.444 13.9892 950.444 16.01C950.444 18.0309 951.485 19.8496 953.108 20.9004L924.01 69.8041C923.219 69.4403 922.344 69.2382 921.429 69.2382C918.223 69.2382 915.642 71.6632 915.351 74.6944H857.112C856.862 71.6632 854.24 69.2382 851.034 69.2382C850.119 69.2382 849.244 69.4403 848.453 69.8041L819.355 20.8196C820.937 19.7283 821.977 17.9905 821.977 15.9697C821.977 12.6959 819.23 10.0285 815.858 10.0285C812.653 10.0285 810.072 12.4534 809.78 15.4846H751.542C751.292 12.4534 748.669 10.0285 745.464 10.0285C742.092 10.0285 739.344 12.6959 739.344 15.9697C739.344 17.9905 740.385 19.8092 742.009 20.86L712.91 69.7636C712.119 69.3999 711.245 69.1978 710.329 69.1978C707.124 69.1978 704.543 71.6228 704.251 74.654H646.013C645.763 71.6228 643.14 69.1978 639.935 69.1978C639.019 69.1978 638.145 69.3999 637.312 69.7636L608.214 20.7792C609.796 19.6879 610.836 17.95 610.836 15.9292C610.836 12.6555 608.089 9.98803 604.717 9.98803C601.345 9.98803 598.598 12.6555 598.598 15.9292C598.598 19.2029 601.345 21.8704 604.717 21.8704C605.674 21.8704 606.549 21.6279 607.339 21.2642L636.438 70.2082C634.856 71.2994 633.815 73.0778 633.815 75.0986C633.815 77.1194 634.856 78.8977 636.438 79.9889L607.339 128.933C606.549 128.569 605.674 128.367 604.758 128.367C601.553 128.367 598.972 130.792 598.681 133.823H540.442C540.192 130.792 537.57 128.367 534.364 128.367C533.448 128.367 532.574 128.569 531.783 128.933L502.685 79.9889C504.267 78.8977 505.307 77.1194 505.307 75.0986C505.307 71.8249 502.56 69.1574 499.188 69.1574C495.983 69.1574 493.36 71.5823 493.11 74.6136H434.872C434.622 71.5823 431.999 69.1574 428.794 69.1574C427.878 69.1574 427.004 69.3595 426.213 69.7232L397.114 20.7388C398.696 19.6475 399.737 17.9096 399.737 15.8888C399.737 12.6151 396.989 9.94761 393.617 9.94761C390.412 9.94761 387.789 12.3726 387.54 15.4038H329.301C329.051 12.3726 326.429 9.94761 323.223 9.94761C319.851 9.94761 317.104 12.6151 317.104 15.8888C317.104 17.9096 318.144 19.7283 319.768 20.7792L290.669 69.6828C289.878 69.3191 289.004 69.117 288.088 69.117C284.883 69.117 282.26 71.542 282.011 74.5732H223.772C223.522 71.542 220.9 69.117 217.694 69.117C216.778 69.117 215.863 69.3191 215.072 69.6828L185.973 20.6983C187.555 19.6071 188.596 17.8692 188.596 15.8484C188.596 13.8276 187.555 12.0897 185.973 10.9984L215.072 -37.9456C215.863 -37.5819 216.737 -37.3798 217.694 -37.3798C221.066 -37.3798 223.814 -40.0472 223.814 -43.321C223.814 -46.5947 221.066 -49.2621 217.694 -49.2621C214.322 -49.2621 211.575 -46.5947 211.575 -43.321C211.575 -41.3001 212.615 -39.5218 214.197 -38.4306L185.14 10.756C184.35 10.3922 183.434 10.1497 182.518 10.1497C179.312 10.1497 176.69 12.5747 176.44 15.6059H118.201C117.952 12.5747 115.329 10.1497 112.124 10.1497C111.208 10.1497 110.334 10.3518 109.543 10.7155L80.4441 -38.1881C82.026 -39.2793 83.0667 -41.0576 83.0667 -43.0785C83.0667 -46.3522 80.3192 -49.0196 76.9473 -49.0196C73.5753 -49.0196 70.8278 -46.3522 70.8278 -43.0785C70.8278 -39.8047 73.5753 -37.1373 76.9473 -37.1373C77.8631 -37.1373 78.7373 -37.3394 79.5283 -37.7031L108.627 11.2005C107.003 12.2918 105.963 14.0701 105.963 16.0909C105.963 18.1117 107.003 19.9304 108.627 20.9813L79.5283 69.8849C78.7373 69.5211 77.8631 69.319 76.9473 69.319C73.7419 69.319 71.1193 71.744 70.8695 74.7752H12.7141C12.4643 71.744 9.8417 69.319 6.63628 69.319C3.26435 69.319 0.516846 71.9865 0.516846 75.2602C0.516846 78.534 3.26435 81.2014 6.63628 81.2014C9.8417 81.2014 12.4227 78.7765 12.7141 75.7452H70.9527C71.2025 78.7765 73.8251 81.2014 77.0305 81.2014C77.9464 81.2014 78.8206 80.9993 79.6115 80.5952L108.71 129.539C107.128 130.63 106.087 132.409 106.087 134.43C106.087 136.45 107.128 138.229 108.71 139.32L79.6115 188.264C78.8206 187.9 77.9464 187.658 77.0305 187.658C73.6586 187.658 70.9111 190.325 70.9111 193.599C70.9111 196.873 73.6586 199.54 77.0305 199.54C80.4025 199.54 83.15 196.873 83.15 193.599C83.15 191.578 82.1093 189.8 80.5274 188.709L109.626 139.765C110.417 140.128 111.291 140.33 112.207 140.33C115.412 140.33 117.993 137.905 118.285 134.874H176.523C176.773 137.905 179.396 140.33 182.601 140.33C183.517 140.33 184.391 140.128 185.224 139.765L214.322 188.709C212.74 189.8 211.7 191.578 211.7 193.599C211.7 196.873 214.447 199.54 217.819 199.54C221.024 199.54 223.605 197.115 223.897 194.084H282.136C282.385 197.115 285.008 199.54 288.213 199.54C289.129 199.54 290.003 199.338 290.794 198.934L319.893 247.918C318.311 249.01 317.27 250.747 317.27 252.768C317.27 254.789 318.311 256.527 319.893 257.618L290.794 306.603C290.003 306.239 289.129 305.996 288.213 305.996C284.841 305.996 282.094 308.664 282.094 311.938C282.094 315.211 284.841 317.879 288.213 317.879C291.585 317.879 294.333 315.211 294.333 311.938C294.333 309.917 293.292 308.139 291.71 307.047L320.809 258.103C321.6 258.467 322.515 258.709 323.431 258.709C326.637 258.709 329.218 256.284 329.509 253.253H387.748C387.997 256.284 390.62 258.709 393.826 258.709C394.741 258.709 395.616 258.507 396.406 258.144L425.505 307.047C423.923 308.139 422.882 309.917 422.882 311.938C422.882 315.211 425.63 317.879 429.002 317.879C432.374 317.879 435.121 315.211 435.121 311.938C435.121 308.664 432.374 305.996 429.002 305.996C428.086 305.996 427.212 306.199 426.421 306.603L397.322 257.699C398.946 256.648 399.987 254.829 399.987 252.809C399.987 250.788 398.946 248.969 397.322 247.918L426.421 199.015C427.212 199.378 428.086 199.621 429.002 199.621C432.207 199.621 434.83 197.196 435.08 194.165H493.318C493.568 197.196 496.191 199.621 499.396 199.621C500.312 199.621 501.186 199.419 501.977 199.015L531.076 247.999C529.494 249.09 528.453 250.828 528.453 252.849C528.453 256.123 531.201 258.79 534.572 258.79C537.778 258.79 540.359 256.365 540.65 253.334H598.889C599.139 256.365 601.761 258.79 604.967 258.79C608.339 258.79 611.086 256.123 611.086 252.849C611.086 250.828 610.045 249.01 608.422 247.959L637.52 199.055C638.311 199.419 639.185 199.621 640.143 199.621C643.348 199.621 645.929 197.196 646.221 194.165H704.459C704.709 197.196 707.332 199.621 710.537 199.621C711.453 199.621 712.327 199.419 713.118 199.055L742.217 247.999C740.635 249.09 739.636 250.828 739.636 252.849C739.636 254.87 740.677 256.608 742.217 257.699L713.118 306.683C712.327 306.32 711.453 306.118 710.537 306.118C707.165 306.118 704.418 308.785 704.418 312.059C704.418 315.333 707.165 318 710.537 318C713.909 318 716.657 315.333 716.657 312.059C716.657 310.038 715.616 308.26 714.034 307.169L743.133 258.224C743.924 258.588 744.839 258.831 745.755 258.831C748.961 258.831 751.542 256.406 751.833 253.374H809.905C810.155 256.406 812.778 258.831 815.983 258.831C816.899 258.831 817.773 258.629 818.564 258.265L847.662 307.169C846.081 308.26 845.04 310.038 845.04 312.059C845.04 315.333 847.787 318 851.159 318C854.531 318 857.279 315.333 857.279 312.059C857.279 308.785 854.531 306.118 851.159 306.118C850.243 306.118 849.369 306.32 848.578 306.683L819.48 257.78C821.103 256.689 822.144 254.91 822.144 252.889C822.144 250.869 821.103 249.05 819.48 247.999L848.578 199.096C849.369 199.459 850.243 199.661 851.159 199.661C854.365 199.661 856.987 197.236 857.237 194.205H915.476C915.725 197.236 918.348 199.661 921.554 199.661C922.469 199.661 923.344 199.459 924.134 199.096L953.233 248.04C951.651 249.131 950.61 250.869 950.61 252.889C950.61 256.163 953.358 258.831 956.73 258.831C959.935 258.831 962.516 256.406 962.808 253.374H1021.05C1021.3 256.406 1023.92 258.831 1027.12 258.831C1030.5 258.831 1033.24 256.163 1033.24 252.889C1033.24 250.869 1032.2 249.05 1030.58 247.999L1059.68 199.096C1060.47 199.459 1061.34 199.661 1062.26 199.661C1065.46 199.661 1068.05 197.236 1068.34 194.205H1126.58C1126.82 197.236 1129.45 199.661 1132.65 199.661C1133.57 199.661 1134.44 199.459 1135.23 199.096L1164.33 248.04C1162.75 249.131 1161.71 250.869 1161.71 252.889C1161.71 256.163 1164.46 258.831 1167.83 258.831C1171.2 258.831 1173.95 256.163 1173.95 252.889C1173.95 249.616 1171.2 246.948 1167.83 246.948C1166.87 246.948 1166 247.191 1165.21 247.555L1136.11 198.611C1137.69 197.519 1138.73 195.741 1138.73 193.72C1138.73 191.699 1137.69 189.921 1136.11 188.83L1165.21 139.886C1166 140.25 1166.87 140.452 1167.79 140.452C1170.99 140.452 1173.57 138.027 1173.87 134.995H1232.1C1232.35 138.027 1234.98 140.452 1238.18 140.452C1241.55 140.452 1244.3 137.784 1244.3 134.51C1244.3 131.237 1241.51 128.488 1238.14 128.488ZM954.024 21.4663C954.815 21.83 955.647 22.0321 956.605 22.0321C959.81 22.0321 962.391 19.6071 962.683 16.5759H1020.92C1021.17 19.6071 1023.79 22.0321 1027 22.0321C1027.96 22.0321 1028.83 21.7896 1029.62 21.4258L1058.72 70.3699C1057.14 71.4611 1056.1 73.2394 1056.1 75.2602C1056.1 77.2811 1057.14 79.0594 1058.72 80.1506L1029.62 129.095C1028.83 128.731 1027.96 128.529 1027.04 128.529C1023.84 128.529 1021.25 130.954 1020.96 133.985H962.724C962.475 130.954 959.852 128.529 956.647 128.529C955.731 128.529 954.857 128.731 954.066 129.095L924.967 80.1506C926.549 79.0594 927.59 77.2811 927.59 75.2602C927.59 73.2394 926.549 71.4611 924.967 70.3699L954.024 21.4663ZM921.47 187.658C918.265 187.658 915.684 190.083 915.392 193.114H857.154C856.904 190.083 854.281 187.658 851.076 187.658C850.16 187.658 849.286 187.86 848.495 188.224L819.396 139.28C820.978 138.188 822.019 136.41 822.019 134.389C822.019 132.368 820.978 130.59 819.396 129.499L848.495 80.5547C849.286 80.9185 850.16 81.161 851.076 81.161C854.281 81.161 856.904 78.736 857.154 75.7048H915.392C915.642 78.736 918.265 81.161 921.47 81.161C922.386 81.161 923.26 80.9589 924.051 80.5547L953.15 129.499C951.568 130.59 950.527 132.368 950.527 134.389C950.527 136.41 951.568 138.188 953.15 139.28L924.051 188.224C923.26 187.86 922.386 187.658 921.47 187.658ZM742.924 21.4663C743.715 21.83 744.548 22.0321 745.505 22.0321C748.711 22.0321 751.292 19.6071 751.583 16.5759H809.822C810.072 19.6071 812.694 22.0321 815.9 22.0321C816.857 22.0321 817.731 21.7896 818.522 21.4258L847.621 70.3699C846.039 71.4611 844.998 73.2394 844.998 75.2602C844.998 77.2811 846.039 79.0594 847.621 80.1506L818.522 129.095C817.731 128.731 816.857 128.529 815.9 128.529C812.694 128.529 810.113 130.954 809.822 133.985H751.625C751.375 130.954 748.752 128.529 745.547 128.529C744.631 128.529 743.757 128.731 742.966 129.095L713.867 80.1506C715.449 79.0594 716.49 77.2811 716.49 75.2602C716.49 73.2394 715.449 71.4611 713.867 70.3699L742.924 21.4663ZM637.395 80.6356C638.186 80.9993 639.061 81.2418 640.018 81.2418C643.224 81.2418 645.804 78.8168 646.096 75.7856H704.335C704.584 78.8168 707.207 81.2418 710.412 81.2418C711.328 81.2418 712.202 81.0398 712.993 80.6356L742.092 129.58C740.51 130.671 739.469 132.449 739.469 134.47C739.469 136.491 740.51 138.269 742.092 139.36L712.993 188.304C712.202 187.941 711.328 187.739 710.412 187.739C707.207 187.739 704.626 190.164 704.335 193.195H646.096C645.846 190.164 643.224 187.739 640.018 187.739C639.102 187.739 638.228 187.941 637.395 188.304L608.297 139.36C609.879 138.269 610.92 136.491 610.92 134.47C610.92 132.449 609.879 130.671 608.297 129.58L637.395 80.6356ZM530.951 129.539C529.369 130.63 528.328 132.409 528.328 134.43C528.328 136.45 529.369 138.229 530.951 139.32L501.852 188.264C501.061 187.9 500.187 187.658 499.271 187.658C496.066 187.658 493.443 190.083 493.193 193.114H434.955C434.705 190.083 432.082 187.658 428.877 187.658C427.961 187.658 427.087 187.86 426.296 188.264L397.197 139.32C398.779 138.229 399.82 136.45 399.82 134.43C399.82 132.409 398.779 130.63 397.197 129.539L426.296 80.5952C427.087 80.9589 427.961 81.2014 428.877 81.2014C432.082 81.2014 434.705 78.7765 434.955 75.7452H493.193C493.443 78.7765 496.066 81.2014 499.271 81.2014C500.187 81.2014 501.061 80.9993 501.852 80.5952L530.951 129.539ZM320.684 21.4663C321.475 21.83 322.349 22.0321 323.265 22.0321C326.47 22.0321 329.093 19.6071 329.343 16.5759H387.581C387.831 19.6071 390.454 22.0321 393.659 22.0321C394.616 22.0321 395.491 21.7896 396.282 21.4258L425.38 70.3699C423.798 71.4611 422.758 73.2394 422.758 75.2602C422.758 77.2811 423.798 79.0594 425.38 80.1506L396.282 129.095C395.491 128.731 394.616 128.529 393.701 128.529C390.495 128.529 387.914 130.954 387.623 133.985H329.384C329.134 130.954 326.512 128.529 323.306 128.529C322.391 128.529 321.516 128.731 320.725 129.095L291.627 80.1506C293.209 79.0594 294.249 77.2811 294.249 75.2602C294.249 73.2394 293.209 71.4611 291.627 70.3699L320.684 21.4663ZM80.4857 80.1506C82.0676 79.0594 83.1084 77.2811 83.1084 75.2602C83.1084 73.2394 82.0676 71.4611 80.4857 70.3699L109.584 21.4663C110.375 21.83 111.249 22.0321 112.165 22.0321C115.371 22.0321 117.993 19.6071 118.243 16.5759H176.482C176.731 19.6071 179.354 22.0321 182.559 22.0321C183.517 22.0321 184.391 21.7896 185.182 21.4258L214.281 70.3699C212.699 71.4611 211.658 73.2394 211.658 75.2602C211.658 77.2811 212.699 79.0594 214.281 80.1506L185.182 129.095C184.391 128.731 183.517 128.529 182.559 128.529C179.354 128.529 176.773 130.954 176.482 133.985H118.243C117.993 130.954 115.371 128.529 112.165 128.529C111.249 128.529 110.375 128.731 109.584 129.095L80.4857 80.1506ZM186.056 139.32C187.638 138.229 188.679 136.45 188.679 134.43C188.679 132.409 187.638 130.63 186.056 129.539L215.155 80.5952C215.946 80.9589 216.82 81.2014 217.777 81.2014C220.983 81.2014 223.564 78.7765 223.855 75.7452H282.094C282.344 78.7765 284.966 81.2014 288.172 81.2014C289.088 81.2014 289.962 80.9993 290.753 80.5952L319.851 129.539C318.269 130.63 317.229 132.409 317.229 134.43C317.229 136.45 318.269 138.229 319.851 139.32L290.753 188.264C289.962 187.9 289.088 187.658 288.172 187.658C284.966 187.658 282.344 190.083 282.094 193.114H223.855C223.605 190.083 220.983 187.658 217.777 187.658C216.862 187.658 215.946 187.86 215.155 188.264L186.056 139.32ZM396.282 247.393C395.491 247.029 394.616 246.827 393.701 246.827C390.495 246.827 387.914 249.252 387.623 252.283H329.384C329.134 249.252 326.512 246.827 323.306 246.827C322.349 246.827 321.475 247.07 320.684 247.433L291.585 198.489C293.167 197.398 294.208 195.62 294.208 193.599C294.208 191.578 293.167 189.8 291.585 188.709L320.684 139.765C321.475 140.128 322.349 140.33 323.265 140.33C326.47 140.33 329.051 137.905 329.343 134.874H387.581C387.831 137.905 390.454 140.33 393.659 140.33C394.575 140.33 395.449 140.128 396.24 139.765L425.338 188.709C423.757 189.8 422.716 191.578 422.716 193.599C422.716 195.62 423.757 197.398 425.338 198.489L396.282 247.393ZM607.423 247.393C606.632 247.029 605.758 246.827 604.842 246.827C601.636 246.827 599.055 249.252 598.764 252.283H540.525C540.276 249.252 537.653 246.827 534.448 246.827C533.49 246.827 532.616 247.07 531.825 247.433L502.726 198.489C504.308 197.398 505.349 195.62 505.349 193.599C505.349 191.578 504.308 189.8 502.726 188.709L531.825 139.765C532.616 140.128 533.49 140.33 534.406 140.33C537.611 140.33 540.192 137.905 540.484 134.874H598.722C598.972 137.905 601.595 140.33 604.8 140.33C605.716 140.33 606.59 140.128 607.381 139.765L636.48 188.709C634.898 189.8 633.857 191.578 633.857 193.599C633.857 195.62 634.898 197.398 636.48 198.489L607.423 247.393ZM818.522 247.393C817.731 247.029 816.857 246.827 815.941 246.827C812.736 246.827 810.155 249.252 809.864 252.283H751.625C751.375 249.252 748.752 246.827 745.547 246.827C744.59 246.827 743.715 247.07 742.924 247.433L713.826 198.489C715.408 197.398 716.449 195.62 716.449 193.599C716.449 191.578 715.408 189.8 713.826 188.709L742.924 139.765C743.715 140.128 744.59 140.33 745.505 140.33C748.711 140.33 751.292 137.905 751.583 134.874H809.822C810.072 137.905 812.694 140.33 815.9 140.33C816.815 140.33 817.731 140.128 818.522 139.765L847.621 188.709C846.039 189.8 844.998 191.578 844.998 193.599C844.998 195.62 846.039 197.398 847.621 198.489L818.522 247.393ZM1029.62 247.393C1028.83 247.029 1027.96 246.827 1027.04 246.827C1023.84 246.827 1021.25 249.252 1020.96 252.283H962.724C962.475 249.252 959.852 246.827 956.647 246.827C955.689 246.827 954.815 247.07 954.024 247.433L924.925 198.489C926.507 197.398 927.548 195.62 927.548 193.599C927.548 191.578 926.507 189.8 924.925 188.709L954.024 139.765C954.815 140.128 955.689 140.33 956.605 140.33C959.81 140.33 962.391 137.905 962.683 134.874H1020.92C1021.17 137.905 1023.79 140.33 1027 140.33C1027.91 140.33 1028.83 140.128 1029.58 139.765L1058.68 188.709C1057.1 189.8 1056.06 191.578 1056.06 193.599C1056.06 195.62 1057.1 197.398 1058.68 198.489L1029.62 247.393ZM1135.19 188.224C1134.4 187.86 1133.53 187.658 1132.61 187.658C1129.41 187.658 1126.82 190.083 1126.53 193.114H1068.29C1068.05 190.083 1065.42 187.658 1062.22 187.658C1061.3 187.658 1060.43 187.86 1059.64 188.224L1030.54 139.28C1032.12 138.188 1033.16 136.41 1033.16 134.389C1033.16 132.368 1032.12 130.59 1030.54 129.499L1059.64 80.5547C1060.43 80.9185 1061.3 81.161 1062.22 81.161C1065.42 81.161 1068 78.736 1068.29 75.7048H1126.53C1126.78 78.736 1129.41 81.161 1132.61 81.161C1133.53 81.161 1134.4 80.9589 1135.19 80.5547L1164.29 129.499C1162.71 130.59 1161.67 132.368 1161.67 134.389C1161.67 136.41 1162.71 138.188 1164.29 139.28L1135.19 188.224Z" fill="#9AC002"/>
</svg>
