<svg width="1436" height="318" viewBox="0 0 1436 318" fill="none" xmlns="http://www.w3.org/2000/svg">
<path opacity="0.3" d="M7.0407 126.094C10.7485 126.094 13.7481 123.479 14.0397 120.182H81.2388C81.5304 123.479 84.53 126.094 88.2378 126.094C89.321 126.094 90.3209 125.867 91.2374 125.45L124.816 178.391C122.983 179.565 121.775 181.498 121.775 183.658C121.775 185.856 122.983 187.751 124.816 188.926L91.2374 241.829C90.3209 241.45 89.321 241.222 88.2795 241.222C84.3634 241.222 81.1971 244.103 81.1971 247.665C81.1971 251.189 84.3634 254.107 88.2795 254.107C92.154 254.107 95.3202 251.227 95.3202 247.665C95.3202 245.467 94.112 243.534 92.2373 242.359L125.816 189.456C126.733 189.835 127.732 190.1 128.816 190.1C132.523 190.1 135.523 187.486 135.815 184.189H203.055C203.347 187.486 206.388 190.1 210.054 190.1C211.138 190.1 212.137 189.873 213.054 189.456L246.674 242.397C244.883 243.572 243.675 245.467 243.675 247.627C243.675 249.787 244.883 251.72 246.674 252.857L213.054 305.797C212.137 305.418 211.138 305.153 210.054 305.153C206.138 305.153 202.972 308.033 202.972 311.558C202.972 315.12 206.138 318 210.054 318C213.97 318 217.137 315.12 217.137 311.558C217.137 309.36 215.929 307.465 214.095 306.29L247.716 253.349C248.632 253.766 249.674 253.993 250.757 253.993C254.465 253.993 257.464 251.379 257.756 248.082H324.997C325.288 251.379 328.288 253.993 331.996 253.993C333.037 253.993 334.079 253.766 334.954 253.387L368.533 306.29C366.699 307.465 365.491 309.398 365.491 311.558C365.491 315.12 368.657 318 372.574 318C376.448 318 379.614 315.12 379.614 311.558C379.614 308.033 376.448 305.153 372.574 305.153C371.49 305.153 370.491 305.381 369.574 305.797L335.995 252.894C337.87 251.72 339.078 249.787 339.078 247.589C339.078 245.391 337.87 243.458 335.995 242.284L369.574 189.38C370.491 189.759 371.49 190.025 372.574 190.025C376.281 190.025 379.281 187.41 379.573 184.113H446.813C447.105 187.41 450.105 190.025 453.812 190.025C454.896 190.025 455.895 189.797 456.812 189.38L490.432 242.321C488.599 243.496 487.433 245.391 487.433 247.551C487.433 251.075 490.599 253.993 494.515 253.993C498.223 253.993 501.223 251.379 501.514 248.082H568.755C569.047 251.379 572.046 253.993 575.754 253.993C579.67 253.993 582.836 251.113 582.836 247.551C582.836 245.353 581.628 243.42 579.753 242.246L613.332 189.343C614.249 189.722 615.248 189.987 616.332 189.987C620.039 189.987 623.039 187.372 623.331 184.075H690.53C690.821 187.372 693.821 189.987 697.529 189.987C698.612 189.987 699.612 189.759 700.528 189.343L734.149 242.284C732.357 243.458 731.149 245.353 731.149 247.513C731.149 251.038 734.315 253.956 738.19 253.956C742.106 253.956 745.272 251.075 745.272 247.513C745.272 243.951 742.106 241.071 738.19 241.071C737.107 241.071 736.065 241.336 735.149 241.715L701.528 188.774C703.361 187.599 704.57 185.705 704.57 183.507C704.57 181.309 703.361 179.414 701.528 178.239L735.107 125.298C736.023 125.677 737.023 125.942 738.107 125.942C741.814 125.942 744.814 123.327 745.106 120.031H812.305C812.596 123.327 815.596 125.942 819.304 125.942C820.387 125.942 821.387 125.715 822.303 125.298L855.924 178.239C854.091 179.414 852.882 181.346 852.882 183.507C852.882 187.031 856.049 189.949 859.965 189.949C863.673 189.949 866.672 187.334 866.964 184.037H934.163C934.454 187.334 937.454 189.949 941.162 189.949C942.245 189.949 943.245 189.722 944.161 189.305L977.782 242.246C975.949 243.42 974.782 245.315 974.782 247.475C974.782 251 977.948 253.918 981.865 253.918C985.572 253.918 988.572 251.303 988.864 248.006H1056.06C1056.35 251.303 1059.35 253.918 1063.06 253.918C1066.94 253.918 1070.14 251.038 1070.14 247.475C1070.14 245.277 1068.94 243.345 1067.06 242.17L1100.64 189.267C1101.56 189.646 1102.56 189.911 1103.64 189.911C1107.35 189.911 1110.35 187.296 1110.64 183.999H1177.84C1178.13 187.296 1181.13 189.911 1184.84 189.911C1185.92 189.911 1186.92 189.684 1187.84 189.267L1221.46 242.208C1219.67 243.382 1218.46 245.277 1218.46 247.437C1218.46 249.597 1219.67 251.53 1221.46 252.667L1187.84 305.608C1186.92 305.229 1185.92 304.964 1184.84 304.964C1180.96 304.964 1177.8 307.844 1177.8 311.368C1177.8 314.93 1180.96 317.81 1184.84 317.81C1188.75 317.81 1191.92 314.93 1191.92 311.368C1191.92 309.17 1190.71 307.275 1188.88 306.101L1222.5 253.16C1223.41 253.577 1224.46 253.804 1225.54 253.804C1229.25 253.804 1232.25 251.189 1232.54 247.892H1299.74C1300.03 251.189 1303.03 253.804 1306.74 253.804C1307.78 253.804 1308.78 253.577 1309.69 253.198L1343.27 306.101C1341.44 307.275 1340.23 309.208 1340.23 311.368C1340.23 314.93 1343.4 317.81 1347.31 317.81C1351.19 317.81 1354.35 314.93 1354.35 311.368C1354.35 307.844 1351.19 304.964 1347.31 304.964C1346.23 304.964 1345.23 305.191 1344.31 305.608L1310.74 252.705C1312.57 251.53 1313.82 249.597 1313.82 247.4C1313.82 245.202 1312.61 243.269 1310.74 242.094L1344.31 189.191C1345.23 189.57 1346.23 189.835 1347.31 189.835C1351.02 189.835 1354.02 187.22 1354.31 183.923H1421.51C1421.8 187.22 1424.85 189.835 1428.51 189.835C1432.43 189.835 1435.59 186.955 1435.59 183.393C1435.59 179.831 1432.43 176.951 1428.51 176.951C1424.8 176.951 1421.8 179.565 1421.51 182.862H1354.31C1354.02 179.565 1351.02 176.951 1347.31 176.951C1346.23 176.951 1345.23 177.178 1344.31 177.595L1310.74 124.654C1312.57 123.479 1313.78 121.546 1313.78 119.386C1313.78 117.188 1312.57 115.294 1310.74 114.119L1344.31 61.1778C1345.23 61.5568 1346.23 61.8221 1347.31 61.8221C1351.19 61.8221 1354.35 58.942 1354.35 55.3797C1354.35 51.8554 1351.19 48.9374 1347.31 48.9374C1343.4 48.9374 1340.23 51.8175 1340.23 55.3797C1340.23 57.5777 1341.44 59.4725 1343.27 60.6473L1309.69 113.588C1308.78 113.209 1307.78 112.944 1306.69 112.944C1302.99 112.944 1299.99 115.559 1299.7 118.856H1232.54C1232.25 115.559 1229.25 112.944 1225.54 112.944C1224.46 112.944 1223.46 113.171 1222.54 113.588L1188.96 60.6473C1190.79 59.4725 1192 57.5398 1192 55.3797C1192 51.8554 1188.84 48.9374 1184.92 48.9374C1181.21 48.9374 1178.21 51.5522 1177.92 54.8492H1110.72C1110.43 51.5522 1107.43 48.9374 1103.72 48.9374C1102.64 48.9374 1101.64 49.1648 1100.72 49.5816L1067.1 -3.3593C1068.89 -4.53408 1070.1 -6.42888 1070.1 -8.58896C1070.1 -10.749 1068.89 -12.6818 1067.1 -13.8186L1100.72 -66.7595C1101.64 -66.3806 1102.64 -66.1153 1103.72 -66.1153C1107.6 -66.1153 1110.76 -68.9954 1110.76 -72.5577C1110.76 -76.082 1107.6 -79 1103.72 -79C1099.81 -79 1096.64 -76.1199 1096.64 -72.5577C1096.64 -70.3597 1097.85 -68.4649 1099.68 -67.2901L1066.06 -14.3492C1065.14 -14.766 1064.1 -14.9934 1063.02 -14.9934C1059.31 -14.9934 1056.31 -12.3786 1056.02 -9.08163H988.822C988.53 -12.3786 985.531 -14.9934 981.823 -14.9934C980.781 -14.9934 979.781 -14.7661 978.865 -14.3871L945.286 -67.2901C947.119 -68.4649 948.328 -70.3976 948.328 -72.5577C948.328 -76.082 945.161 -79 941.245 -79C937.371 -79 934.204 -76.1199 934.204 -72.5577C934.204 -68.9954 937.371 -66.1153 941.245 -66.1153C942.328 -66.1153 943.328 -66.3427 944.245 -66.7595L977.823 -13.8565C975.99 -12.6818 974.741 -10.7491 974.741 -8.55108C974.741 -6.3531 975.949 -4.42039 977.823 -3.24561L944.245 49.6574C943.328 49.2405 942.328 49.0132 941.245 49.0132C937.537 49.0132 934.538 51.628 934.246 54.925H867.047C866.755 51.628 863.756 49.0132 860.048 49.0132C858.965 49.0132 857.965 49.2405 857.048 49.6574L823.428 -3.28352C825.261 -4.4583 826.428 -6.3531 826.428 -8.51318C826.428 -12.0754 823.261 -14.9555 819.345 -14.9555C815.638 -14.9555 812.638 -12.3407 812.346 -9.04372H745.106C744.814 -12.3407 741.814 -14.9555 738.107 -14.9555C734.19 -14.9555 731.024 -12.0754 731.024 -8.51318C731.024 -6.3152 732.232 -4.38249 734.107 -3.20771L700.528 49.6953C699.612 49.3163 698.612 49.0511 697.529 49.0511C693.821 49.0511 690.821 51.6659 690.53 54.9629H623.331C623.039 51.6659 620.039 49.0511 616.332 49.0511C615.248 49.0511 614.249 49.2784 613.332 49.6953L579.712 -3.24561C581.503 -4.42039 582.711 -6.31519 582.711 -8.47527C582.711 -10.6354 581.503 -12.5681 579.712 -13.705L613.332 -66.6459C614.249 -66.2669 615.248 -66.0016 616.332 -66.0016C620.248 -66.0016 623.414 -68.8817 623.414 -72.444C623.414 -75.9683 620.248 -78.8863 616.332 -78.8863C612.416 -78.8863 609.291 -76.0062 609.291 -72.444C609.291 -70.246 610.499 -68.3512 612.332 -67.1764L578.712 -14.2355C577.795 -14.6524 576.754 -14.8797 575.671 -14.8797C571.963 -14.8797 568.963 -12.2649 568.672 -8.96794H501.389C501.098 -12.2649 498.098 -14.8797 494.39 -14.8797C493.349 -14.8797 492.307 -14.6523 491.432 -14.2734L457.854 -67.1764C459.687 -68.3512 460.895 -70.2839 460.895 -72.444C460.895 -75.9683 457.729 -78.8863 453.812 -78.8863C449.938 -78.8863 446.73 -76.0062 446.73 -72.444C446.73 -68.8817 449.896 -66.0016 453.812 -66.0016C454.896 -66.0016 455.895 -66.229 456.812 -66.6459L490.391 -13.7428C488.516 -12.5681 487.308 -10.6354 487.308 -8.4374C487.308 -6.23942 488.516 -4.30671 490.391 -3.13194L456.812 49.7711C455.895 49.3921 454.896 49.1269 453.812 49.1269C450.105 49.1269 447.105 51.7417 446.813 55.0387H379.573C379.281 51.7417 376.281 49.1269 372.574 49.1269C371.49 49.1269 370.491 49.3542 369.574 49.7711L335.954 -3.16984C337.787 -4.34462 338.953 -6.23941 338.953 -8.39949C338.953 -11.9617 335.787 -14.8418 331.871 -14.8418C328.163 -14.8418 325.163 -12.227 324.872 -8.93004H257.714C257.423 -12.227 254.423 -14.8418 250.715 -14.8418C246.799 -14.8418 243.633 -11.9617 243.633 -8.39949C243.633 -6.20152 244.841 -4.26881 246.716 -3.09402L213.137 49.809C212.221 49.43 211.221 49.1648 210.138 49.1648C206.43 49.1648 203.43 51.7796 203.139 55.0766H135.898C135.606 51.7796 132.607 49.1648 128.899 49.1648C127.816 49.1648 126.816 49.3921 125.899 49.809L92.2789 -3.09402C94.0704 -4.26881 95.2785 -6.1636 95.2785 -8.32368C95.2785 -11.8859 92.1123 -14.766 88.1962 -14.766C84.28 -14.766 81.1138 -11.8859 81.1138 -8.32368C81.1138 -4.79935 84.28 -1.91926 88.1962 -1.91926C89.2794 -1.91926 90.3209 -2.18452 91.2374 -2.56348L124.858 50.3774C123.025 51.5522 121.817 53.4849 121.817 55.645C121.817 57.843 123.025 59.7378 124.858 60.9126L91.2791 113.853C90.3625 113.475 89.3627 113.209 88.2795 113.209C84.5717 113.209 81.5721 115.824 81.2805 119.121H14.0814C13.7898 115.824 10.7902 113.209 7.08236 113.209C3.16623 113.209 0 116.089 0 119.614C0 123.214 3.16623 126.094 7.0407 126.094ZM334.995 241.829C334.079 241.45 333.079 241.222 332.038 241.222C328.33 241.222 325.33 243.837 325.038 247.096H257.798C257.506 243.799 254.507 241.222 250.799 241.222C249.716 241.222 248.674 241.488 247.757 241.867L214.137 188.926C215.97 187.751 217.178 185.856 217.178 183.658C217.178 181.46 215.97 179.565 214.137 178.391L247.716 125.45C248.632 125.829 249.632 126.094 250.715 126.094C254.423 126.094 257.423 123.479 257.714 120.182H324.955C325.247 123.479 328.246 126.094 331.954 126.094C333.037 126.094 334.037 125.867 334.954 125.45L368.533 178.391C366.699 179.565 365.491 181.498 365.491 183.658C365.491 185.856 366.699 187.751 368.533 188.926L334.995 241.829ZM372.615 62.0873C376.323 62.0873 379.323 59.4725 379.614 56.1755H446.855C447.147 59.4725 450.146 62.0873 453.854 62.0873C454.937 62.0873 455.937 61.86 456.854 61.4431L490.432 114.346C488.599 115.521 487.391 117.454 487.391 119.614C487.391 121.812 488.599 123.706 490.432 124.881L456.854 177.822C455.937 177.443 454.937 177.178 453.854 177.178C450.146 177.178 447.147 179.793 446.855 183.09H379.614C379.323 179.793 376.323 177.178 372.615 177.178C371.532 177.178 370.532 177.405 369.616 177.822L336.037 124.919C337.87 123.744 339.078 121.812 339.078 119.652C339.078 117.454 337.87 115.559 336.037 114.384L369.616 61.4431C370.532 61.86 371.532 62.0873 372.615 62.0873ZM578.712 241.829C577.795 241.45 576.795 241.222 575.754 241.222C572.046 241.222 569.047 243.837 568.755 247.096H501.514C501.223 243.799 498.223 241.222 494.515 241.222C493.432 241.222 492.39 241.488 491.474 241.867L457.854 188.926C459.687 187.751 460.895 185.856 460.895 183.658C460.895 181.46 459.687 179.565 457.854 178.391L491.432 125.45C492.349 125.829 493.349 126.094 494.432 126.094C498.14 126.094 501.139 123.479 501.431 120.182H568.672C568.963 123.479 571.963 126.094 575.671 126.094C576.754 126.094 577.754 125.867 578.67 125.45L612.249 178.391C610.416 179.565 609.208 181.498 609.208 183.658C609.208 185.856 610.416 187.751 612.249 188.926L578.712 241.829ZM700.528 177.86C699.612 177.481 698.612 177.216 697.529 177.216C693.821 177.216 690.821 179.831 690.53 183.128H623.331C623.039 179.831 620.039 177.216 616.332 177.216C615.248 177.216 614.249 177.443 613.332 177.86L579.753 124.957C581.586 123.782 582.795 121.85 582.795 119.689C582.795 117.492 581.586 115.597 579.753 114.422L613.332 61.481C614.249 61.86 615.248 62.1252 616.332 62.1252C620.039 62.1252 623.039 59.5104 623.331 56.2134H690.53C690.821 59.5104 693.821 62.1252 697.529 62.1252C698.612 62.1252 699.612 61.8979 700.528 61.481L734.107 114.384C732.274 115.559 731.066 117.492 731.066 119.652C731.066 121.85 732.274 123.744 734.107 124.919L700.528 177.86ZM823.386 124.919C825.219 123.744 826.428 121.812 826.428 119.652C826.428 117.454 825.219 115.559 823.386 114.384L857.007 61.4431C857.923 61.8221 858.923 62.0873 860.006 62.0873C863.714 62.0873 866.714 59.4725 867.005 56.1755H934.204C934.496 59.4725 937.496 62.0873 941.204 62.0873C942.287 62.0873 943.287 61.86 944.203 61.4431L977.782 114.384C975.949 115.559 974.741 117.492 974.741 119.652C974.741 121.85 975.949 123.744 977.782 124.919L944.203 177.86C943.287 177.481 942.287 177.216 941.204 177.216C937.496 177.216 934.496 179.831 934.204 183.128H867.005C866.714 179.831 863.714 177.216 860.006 177.216C858.923 177.216 857.923 177.443 857.007 177.86L823.386 124.919ZM1066.1 241.829C1065.19 241.45 1064.19 241.222 1063.15 241.222C1059.44 241.222 1056.44 243.837 1056.15 247.096H988.947C988.655 243.799 985.656 241.222 981.948 241.222C980.865 241.222 979.823 241.488 978.907 241.867L945.286 188.926C947.119 187.751 948.328 185.856 948.328 183.658C948.328 181.46 947.119 179.565 945.286 178.391L978.865 125.45C979.781 125.829 980.781 126.094 981.865 126.094C985.572 126.094 988.572 123.479 988.864 120.182H1056.1C1056.4 123.479 1059.44 126.094 1063.1 126.094C1064.19 126.094 1065.19 125.867 1066.1 125.45L1099.68 178.391C1097.85 179.565 1096.64 181.498 1096.64 183.658C1096.64 185.856 1097.85 187.751 1099.68 188.926L1066.1 241.829ZM1343.36 178.391C1341.52 179.565 1340.32 181.498 1340.32 183.658C1340.32 185.856 1341.52 187.751 1343.36 188.926L1309.78 241.829C1308.86 241.45 1307.86 241.222 1306.82 241.222C1303.11 241.222 1300.11 243.837 1299.82 247.096H1232.62C1232.33 243.799 1229.33 241.222 1225.62 241.222C1224.54 241.222 1223.5 241.488 1222.58 241.867L1188.96 188.926C1190.79 187.751 1192 185.856 1192 183.658C1192 181.46 1190.79 179.565 1188.96 178.391L1222.54 125.45C1223.46 125.829 1224.46 126.094 1225.54 126.094C1229.25 126.094 1232.25 123.479 1232.54 120.182H1299.74C1300.03 123.479 1303.03 126.094 1306.74 126.094C1307.82 126.094 1308.82 125.867 1309.74 125.45L1343.36 178.391ZM1221.5 114.384C1219.67 115.559 1218.46 117.492 1218.46 119.652C1218.46 121.85 1219.67 123.744 1221.5 124.919L1187.92 177.86C1187 177.481 1186 177.216 1184.92 177.216C1181.21 177.216 1178.21 179.831 1177.92 183.128H1110.72C1110.43 179.831 1107.43 177.216 1103.72 177.216C1102.64 177.216 1101.64 177.443 1100.72 177.86L1067.14 124.919C1068.98 123.744 1070.19 121.812 1070.19 119.652C1070.19 117.454 1068.98 115.559 1067.14 114.384L1100.72 61.4431C1101.64 61.8221 1102.64 62.0873 1103.72 62.0873C1107.43 62.0873 1110.43 59.4725 1110.72 56.1755H1177.92C1178.21 59.4725 1181.21 62.0873 1184.92 62.0873C1186 62.0873 1187 61.86 1187.92 61.4431L1221.5 114.384ZM978.823 -2.52558C979.74 -2.14662 980.74 -1.91926 981.781 -1.91926C985.489 -1.91926 988.489 -4.53408 988.78 -7.83105H1055.98C1056.27 -4.53408 1059.27 -1.91926 1062.98 -1.91926C1064.06 -1.91926 1065.1 -2.18452 1066.02 -2.56348L1099.64 50.3774C1097.81 51.5522 1096.6 53.4849 1096.6 55.645C1096.6 57.843 1097.81 59.7378 1099.64 60.9126L1066.06 113.853C1065.14 113.475 1064.14 113.209 1063.06 113.209C1059.35 113.209 1056.35 115.824 1056.06 119.121H988.822C988.53 115.824 985.531 113.209 981.823 113.209C980.74 113.209 979.74 113.437 978.823 113.853L945.245 60.9126C947.078 59.7378 948.286 57.8051 948.286 55.645C948.286 53.447 947.078 51.5522 945.245 50.3774L978.823 -2.52558ZM735.107 -2.52558C736.023 -2.14662 737.023 -1.91926 738.065 -1.91926C741.773 -1.91926 744.772 -4.53408 745.064 -7.83105H812.263C812.555 -4.53408 815.554 -1.91926 819.262 -1.91926C820.345 -1.91926 821.387 -2.18452 822.303 -2.56348L855.924 50.3774C854.091 51.5522 852.882 53.4849 852.882 55.645C852.882 57.843 854.091 59.7378 855.924 60.9126L822.303 113.853C821.387 113.475 820.387 113.209 819.304 113.209C815.596 113.209 812.596 115.824 812.305 119.121H745.106C744.772 115.824 741.814 113.209 738.107 113.209C737.023 113.209 736.023 113.437 735.107 113.853L701.528 60.9126C703.361 59.7378 704.57 57.8051 704.57 55.645C704.57 53.447 703.361 51.5522 701.528 50.3774L735.107 -2.52558ZM491.432 -2.52558C492.349 -2.14662 493.349 -1.91926 494.39 -1.91926C498.098 -1.91926 501.098 -4.53408 501.389 -7.83105H568.588C568.88 -4.53408 571.879 -1.91926 575.587 -1.91926C576.67 -1.91926 577.712 -2.18452 578.628 -2.56348L612.249 50.3774C610.416 51.5522 609.208 53.4849 609.208 55.645C609.208 57.843 610.416 59.7378 612.249 60.9126L578.67 113.853C577.754 113.475 576.754 113.209 575.671 113.209C571.963 113.209 568.963 115.824 568.672 119.121H501.431C501.139 115.824 498.14 113.209 494.432 113.209C493.349 113.209 492.349 113.437 491.432 113.853L457.854 60.9126C459.687 59.7378 460.895 57.8051 460.895 55.645C460.895 53.447 459.687 51.5522 457.854 50.3774L491.432 -2.52558ZM247.716 -2.52558C248.632 -2.14662 249.632 -1.91926 250.674 -1.91926C254.382 -1.91926 257.381 -4.53408 257.673 -7.83105H324.914C325.205 -4.53408 328.205 -1.91926 331.913 -1.91926C332.996 -1.91926 334.037 -2.18452 334.954 -2.56348L368.574 50.3774C366.741 51.5522 365.533 53.4849 365.533 55.645C365.533 57.843 366.741 59.7378 368.574 60.9126L334.995 113.853C334.079 113.475 333.079 113.209 331.996 113.209C328.288 113.209 325.288 115.824 324.997 119.121H257.756C257.464 115.824 254.465 113.209 250.757 113.209C249.674 113.209 248.674 113.437 247.757 113.853L214.179 60.9126C216.012 59.7378 217.22 57.8051 217.22 55.645C217.22 53.447 216.012 51.5522 214.179 50.3774L247.716 -2.52558ZM125.899 61.4431C126.816 61.8221 127.816 62.0873 128.899 62.0873C132.607 62.0873 135.606 59.4725 135.898 56.1755H203.139C203.43 59.4725 206.471 62.0873 210.138 62.0873C211.221 62.0873 212.221 61.86 213.137 61.4431L246.716 114.346C244.883 115.521 243.675 117.454 243.675 119.614C243.675 121.812 244.883 123.706 246.716 124.881L213.137 177.822C212.221 177.443 211.221 177.178 210.138 177.178C206.43 177.178 203.43 179.793 203.139 183.09H135.898C135.606 179.793 132.607 177.178 128.899 177.178C127.816 177.178 126.816 177.405 125.899 177.822L92.3206 124.919C94.1537 123.744 95.3618 121.812 95.3618 119.652C95.3618 117.454 94.1537 115.559 92.3206 114.384L125.899 61.4431Z" fill="#9AC002"/>
</svg>
