<svg width="591" height="427" viewBox="0 0 591 427" fill="none" xmlns="http://www.w3.org/2000/svg">
<path d="M402.709 344.739C402.709 344.739 440.645 345.661 455.329 340.842C440.887 335.765 402.921 336.003 402.921 336.003L402.982 333.585L386.565 333.788L386.646 330.683L377.28 331.981L377.351 329.22L369.113 330.529L369.183 327.25L356.98 328.523L357.046 325.934L343.143 327.013L343.224 323.908L327.632 324.807L327.698 322.217L310.364 324.653L310.43 322.064L295.325 325.901L295.415 321.935L280.009 326.974L280.085 324.042L263.838 328.382L263.919 325.277L250.776 330.517L250.821 328.615L234.554 333.999L234.61 331.753C230.011 334.082 217.501 335.432 207.609 336.169C219.447 332.026 240.738 325.155 250.663 325.624L247.706 323.156L272.707 321.336L270.212 319.254L291.565 318.767L287.48 315.347L311.119 312.387L307.263 309.165L330.877 307.387L325.66 303.025L347.376 300.053L343.972 297.203L366.359 291.602L362.955 288.752L381.425 282.282L377.341 278.862L394.176 273.41L390.772 270.56L405.972 266.126L401.654 262.518L412.489 260.018L408.851 256.98L420.94 253.935L416.855 250.515L435.351 242.862L432.175 240.209C432.175 240.209 474.662 222.292 484.151 209.724C461.637 211.4 420.682 230.6 420.682 230.6L417.507 227.947L399.91 236.355L395.825 232.935L387.374 239.018L383.736 235.98L376.523 241.515L372.204 237.907L360.642 245.379L357.238 242.529L343.573 250.643L339.488 247.223L323.741 255.973L320.337 253.123L304.762 264.414L301.359 261.564L290.094 273.264L284.876 268.902L274.883 282.07L271.027 278.847L259.185 291.672L255.1 288.252L247.821 300.501L245.326 298.419L234.845 312.384L231.888 309.916C229.129 317.056 204.584 330.545 197.124 334.518C200.609 329.523 217.761 305.658 230.575 300.957L224.979 299.822L246.912 287.65L242.177 286.69L262.105 277.319L254.356 275.747L273.706 263.052L266.388 261.568L287.031 250.009L277.13 248.001L294.616 236.094L288.159 234.784L303.346 220.078L296.889 218.769L307.344 204.852L299.595 203.281L309.621 191.027L303.164 189.718L312.762 179.126L304.583 177.468L312.177 170.552L305.29 169.156L313.457 161.19L305.708 159.619L314.87 144.565L308.844 143.343C308.844 143.343 329.483 108.436 324.511 92.4176C304.792 103.419 287.065 138.927 287.065 138.927L281.039 137.705L273.599 153.107L265.85 151.536L264.571 160.899L257.684 159.502L256.977 167.814L248.798 166.156L246.088 178.144L239.631 176.834L235.631 190.31L227.883 188.739L222.594 203.703L216.137 202.394L213.864 219.718L207.407 218.409L209.722 234.332L199.821 232.324L205.007 249.121L197.689 247.637L200.723 264.871L192.975 263.3L199.736 278.084L195.001 277.123L200.618 294.882L195.022 293.747C200.318 301.668 192.128 324.488 189.342 331.645C186.916 324.5 181.65 306.91 186.131 300.637L181.34 301.534L186.655 286.522L182.613 287.278L188.808 274.809L182.179 276.057L185.285 261.46L179.033 262.633L183.956 248.437L175.494 250.026L177.958 236.541L172.434 237.58L171.045 222.849L165.521 223.889L161.498 211.13L154.869 212.377L151.89 200.888L146.366 201.927L144.44 191.721L137.439 193.033L137.096 185.966L131.2 187.07L130.403 179.112L123.774 180.359L117.934 167.199L112.787 168.164C112.787 168.164 98.8341 137.83 82.4472 128.265C77.7252 141.799 94.1483 171.663 94.1483 171.663L89.0012 172.628L96.3017 185.512L89.6726 186.759L96.3651 193.613L90.469 194.718L96.6928 200.677L89.6919 201.99L97.5136 211.092L91.9893 212.131L100.121 222.646L93.4919 223.894L101.933 235.821L96.4092 236.861L108.842 249.522L103.318 250.562L117.793 260.873L109.331 262.461L126.499 272.509L120.248 273.681L136.275 284.685L129.646 285.933L146.27 294.12L142.228 294.877L160.465 305.465L155.674 306.362C164.088 309.601 174.396 322.879 179.804 330.531C172.6 326.338 163.911 320.678 162.515 317.133L160.354 318.952L152.611 308.699L150.78 310.24L145.397 301.243L142.414 303.759L133.663 294.35L130.844 296.726L123.452 287.063L119.631 290.273L111.316 281.687L108.827 283.784L97.3348 275.504L94.8456 277.601L83.2392 271.188L80.2564 273.704L70.1807 267.762L67.6916 269.86L59.1679 264.384L56.0047 267.036L50.6918 262.978L48.0381 265.216L41.8109 260.756L38.8282 263.272L25.8779 257.115L23.5533 259.073C23.5533 259.073 -6.60534 245.02 -23.1729 243.81C-16.1427 253.032 15.1464 266.148 15.1464 266.148L12.8217 268.107L26.4461 273.709L23.4634 276.225L32.3602 278.451L29.7065 280.688L37.6731 282.509L34.5098 285.161L45.6872 288.399L43.1981 290.497L55.5984 294.48L52.6157 296.996L66.2177 301.731L63.7286 303.829L80.1988 307.914L77.7096 310.012L93.6727 312.169L89.8514 315.379L107.216 316.654L104.398 319.03L121.785 321.174L118.802 323.69L134.486 324.019L132.655 325.56L151.029 326.867L148.869 328.686C157.497 328.254 177.86 335.364 184.553 337.8C179.234 337.975 165.75 338.253 161.402 336.583L161.739 337.947L151.062 335.48L151.35 336.64L142.607 334.1L143.077 335.999L132.571 334.16L133.009 335.955L122.916 333.649L123.509 336.07L113.768 334.483L114.163 336.064L103.239 335.447L103.634 337.028L93.9807 337.263L94.4507 339.162L85.8064 339.202L86.2016 340.783L78.5719 340.618L79.0579 342.617L73.8507 342.231L74.2619 343.912L68.364 343.591L68.834 345.49L58.7667 346.191L59.1299 347.669C59.1299 347.669 35.8982 349.426 27.7529 353.26C37.3829 355.472 60.4383 352.999 60.4383 352.999L60.8014 354.476L70.7619 353.353L71.2319 355.252L76.7185 353.892L77.1298 355.573L81.9311 354.269L82.4171 356.268L89.6356 354.751L90.0308 356.332L98.3065 354.825L98.7765 356.723L108.11 355.225L108.505 356.806L118.655 354.264L119.05 355.845L127.605 352.591L128.198 355.012L136.741 350.999L137.185 352.784L146.356 349.147L146.826 351.046L153.961 347.05L154.25 348.21L163.271 343.938L163.607 345.302C167.005 342.903 180.338 340.725 185.352 339.971C173.528 363.318 152.941 393.257 152.941 393.257L163.878 395.475C163.872 390.226 184.824 354.939 193.201 341.066C195.286 342.569 205.895 350.422 206.309 353.951L207.917 352.981L210.949 359.697L212.319 358.873L214.111 364.68L216.351 363.331L220.126 369.593L222.234 368.325L225.138 374.658L227.989 372.936L231.646 378.667L233.515 377.545L239.148 383.288L241.017 382.166L247.021 386.774L249.262 385.425L254.41 389.655L256.279 388.533L260.571 392.384L262.923 390.96L265.488 393.759L267.468 392.562L270.527 395.655L272.767 394.306L279.643 398.843L281.384 397.792C281.384 397.792 297.421 408.193 307.306 409.938C304.546 403.893 287.664 394.001 287.664 394.001L289.406 392.95L282.031 388.712L284.272 387.363L279.233 385.466L281.213 384.269L276.663 382.677L279.015 381.253L272.742 378.599L274.611 377.477L267.726 374.288L269.967 372.939L262.465 369.226L264.334 368.104L254.979 364.609L256.848 363.486L247.488 361.2L250.339 359.478L239.993 357.639L242.105 356.361L231.886 353.997L234.126 352.648L224.63 351.489L226 350.665L215.026 348.742L216.635 347.773C211.518 347.513 200.986 342.375 196.898 340.293C204.634 340.782 227.923 342.524 234.426 346.024L234.481 343.778L250.481 349.442L250.526 347.54L263.412 353.004L263.493 349.899L279.523 354.532L279.599 351.599L294.758 356.92L294.849 352.953L309.752 357.055L309.818 354.466L327.019 357.209L327.085 354.62L342.627 355.795L342.708 352.691L356.55 354.029L356.616 351.44L368.748 352.928L368.818 349.649L376.986 351.1L377.057 348.339L386.367 349.806L386.448 346.701L402.861 347.189L402.709 344.739ZM195.91 336.421L196.373 336.807C196.118 336.82 195.868 336.823 195.65 336.833C195.746 336.69 195.82 336.554 195.91 336.421ZM266.789 305.136C274.902 301.36 283.111 297.669 291.273 293.935L315.89 282.847L340.645 271.863C348.94 268.243 357.186 264.581 365.534 260.993C382.149 253.768 398.908 246.67 415.832 239.692C399.834 247.441 383.697 255.054 367.411 262.551C359.298 266.326 351.088 270.018 342.927 273.752L318.305 284.849L293.565 295.836C285.271 299.457 277.024 303.119 268.677 306.707C252.062 313.931 235.303 321.03 218.363 328.005C234.345 320.252 250.487 312.63 266.789 305.136ZM263.681 200.307C268.192 192.259 272.623 184.194 277.204 176.149C286.263 160.049 295.573 144.011 305.126 128.011C297.071 144.314 288.782 160.56 280.233 176.763C276.009 184.87 271.641 192.947 267.348 201.05L254.239 225.293L240.924 249.492C236.412 257.541 231.976 265.615 227.401 273.65C218.346 289.741 209.032 305.789 199.499 321.782C207.549 305.488 215.859 289.236 224.403 273.043C228.627 264.936 232.979 256.855 237.288 248.755L250.381 224.51L263.681 200.307ZM159.849 284.638C156.685 278.716 153.676 272.771 150.587 266.843L141.559 249.008L132.732 231.128C129.861 225.157 126.931 219.195 124.119 213.215C118.419 201.26 112.968 189.269 107.778 177.224C114.487 188.984 120.952 200.802 127.152 212.653C130.315 218.575 133.324 224.52 136.413 230.449L145.458 248.287L154.289 266.157C157.16 272.128 160.106 278.092 162.903 284.07C168.603 296.025 174.054 308.015 179.244 320.061C172.518 308.298 166.064 296.493 159.849 284.638ZM135.543 314.806C129.397 312.178 123.332 309.501 117.219 306.846L98.9901 298.809L80.8624 290.684C74.8446 287.951 68.8162 285.239 62.8302 282.481C50.8211 277 38.9394 271.416 27.1586 265.744C39.6241 270.842 51.9622 276.044 64.1995 281.333C70.3447 283.961 76.4102 286.638 82.5236 289.293L100.752 297.33L118.885 305.446C124.903 308.178 130.931 310.891 136.917 313.649C148.926 319.129 160.808 324.713 172.589 330.385C160.123 325.287 147.78 320.095 135.543 314.806ZM147.83 342.675C143.272 343.144 138.692 343.555 134.129 344.001L120.407 345.268L106.669 346.467C102.09 346.845 97.5159 347.245 92.9259 347.611C83.7566 348.354 74.5659 349.039 65.3645 349.646C74.4644 348.608 83.5804 347.638 92.707 346.745C97.265 346.277 101.85 345.856 106.408 345.42L120.13 344.153L133.868 342.954C138.447 342.576 143.021 342.175 147.611 341.81C156.785 341.057 165.971 340.382 175.172 339.775C166.072 340.813 156.956 341.783 147.83 342.675ZM194.219 339.199L194.204 339.909L193.545 340.304C193.789 339.922 194.012 339.546 194.219 339.199ZM222.358 356.957C225.681 358.916 228.946 360.917 232.242 362.892L242.068 368.869L251.815 374.895C255.032 376.919 258.291 378.93 261.487 380.96C267.921 385.008 274.269 389.114 280.539 393.269C273.765 389.422 267.071 385.527 260.462 381.573C257.139 379.614 253.869 377.623 250.578 375.638L240.752 369.661L231.005 363.635C227.788 361.611 224.529 359.6 221.333 357.57C214.899 353.522 208.55 349.416 202.281 345.262C209.055 349.108 215.743 353.013 222.358 356.957ZM348.5 340.41C340.998 340.433 333.506 340.404 326.004 340.394L303.509 340.282L281.019 340.062C273.517 339.956 266.03 339.885 258.528 339.746C243.535 339.513 228.551 339.163 213.563 338.694C228.566 338.454 243.565 338.32 258.564 338.317C266.071 338.284 273.557 338.322 281.059 338.332L303.549 338.454L326.04 338.674C333.542 338.78 341.028 338.851 348.53 338.99C363.524 339.223 378.507 339.572 393.501 340.032C378.497 340.272 363.499 340.406 348.5 340.41Z" fill="url(#paint0_linear_6_1760)" fill-opacity="0.2"/>
<path d="M402.709 344.739C402.709 344.739 440.645 345.661 455.33 340.842C440.888 335.765 402.921 336.003 402.921 336.003L402.982 333.585L386.565 333.788L386.646 330.683L377.281 331.981L377.352 329.22L369.113 330.529L369.183 327.25L356.981 328.523L357.046 325.934L343.144 327.013L343.225 323.908L327.632 324.807L327.698 322.218L310.364 324.653L310.43 322.064L295.325 325.901L295.415 321.935L280.009 326.974L280.085 324.042L263.838 328.382L263.919 325.277L250.776 330.517L250.821 328.615L234.554 333.999L234.61 331.753C230.012 334.082 217.501 335.432 207.609 336.169C219.447 332.026 240.738 325.155 250.663 325.624L247.706 323.156L272.707 321.336L270.212 319.254L291.565 318.767L287.48 315.347L311.119 312.387L307.263 309.165L330.877 307.387L325.66 303.025L347.376 300.053L343.972 297.203L366.359 291.602L362.955 288.752L381.426 282.282L377.341 278.862L394.176 273.41L390.772 270.56L405.973 266.126L401.654 262.518L412.489 260.018L408.851 256.98L420.94 253.935L416.855 250.515L435.351 242.862L432.176 240.209C432.176 240.209 474.662 222.292 484.151 209.724C461.637 211.4 420.682 230.6 420.682 230.6L417.507 227.947L399.91 236.355L395.825 232.935L387.375 239.018L383.737 235.98L376.523 241.515L372.205 237.907L360.642 245.379L357.238 242.529L343.573 250.643L339.488 247.223L323.741 255.973L320.337 253.123L304.763 264.414L301.359 261.564L290.094 273.264L284.876 268.902L274.883 282.07L271.027 278.847L259.185 291.672L255.1 288.252L247.821 300.501L245.326 298.419L234.846 312.384L231.888 309.916C229.129 317.056 204.584 330.545 197.125 334.518C200.609 329.523 217.761 305.658 230.575 300.957L224.979 299.822L246.912 287.65L242.177 286.69L262.105 277.319L254.356 275.747L273.706 263.052L266.388 261.568L287.031 250.009L277.13 248.001L294.616 236.094L288.159 234.784L303.346 220.078L296.889 218.769L307.344 204.852L299.595 203.281L309.621 191.027L303.165 189.718L312.762 179.126L304.584 177.468L312.178 170.552L305.29 169.156L313.457 161.19L305.709 159.619L314.87 144.565L308.844 143.343C308.844 143.343 329.483 108.436 324.511 92.4176C304.793 103.419 287.065 138.927 287.065 138.927L281.039 137.705L273.599 153.107L265.851 151.536L264.571 160.899L257.684 159.502L256.977 167.814L248.798 166.156L246.088 178.144L239.631 176.834L235.631 190.31L227.883 188.739L222.594 203.703L216.137 202.393L213.864 219.718L207.407 218.409L209.722 234.332L199.822 232.324L205.007 249.121L197.689 247.637L200.724 264.871L192.975 263.3L199.736 278.084L195.001 277.123L200.618 294.882L195.022 293.747C200.319 301.668 192.128 324.488 189.343 331.645C186.916 324.5 181.65 306.91 186.131 300.637L181.34 301.534L186.656 286.522L182.613 287.278L188.808 274.809L182.179 276.057L185.285 261.46L179.033 262.633L183.956 248.437L175.494 250.026L177.959 236.541L172.434 237.58L171.045 222.849L165.521 223.889L161.499 211.13L154.869 212.377L151.89 200.888L146.366 201.927L144.44 191.721L137.44 193.033L137.096 185.966L131.2 187.07L130.403 179.112L123.774 180.359L117.935 167.199L112.787 168.164C112.787 168.164 98.8343 137.83 82.4474 128.265C77.7253 141.799 94.1485 171.663 94.1485 171.663L89.0014 172.628L96.3019 185.512L89.6728 186.759L96.3653 193.613L90.4692 194.718L96.693 200.677L89.6921 201.99L97.5138 211.092L91.9895 212.131L100.121 222.646L93.4921 223.894L101.934 235.821L96.4094 236.861L108.842 249.522L103.318 250.562L117.793 260.873L109.331 262.461L126.5 272.509L120.248 273.681L136.275 284.685L129.646 285.933L146.27 294.12L142.228 294.877L160.465 305.465L155.674 306.362C164.088 309.601 174.397 322.879 179.804 330.531C172.6 326.338 163.911 320.678 162.515 317.133L160.355 318.952L152.611 308.699L150.78 310.24L145.397 301.243L142.415 303.759L133.663 294.35L130.845 296.726L123.452 287.063L119.631 290.273L111.316 281.687L108.827 283.784L97.335 275.504L94.8458 277.601L83.2393 271.188L80.2566 273.704L70.1809 267.762L67.6918 269.86L59.168 264.384L56.0048 267.036L50.692 262.978L48.0383 265.216L41.8111 260.756L38.8284 263.272L25.8781 257.115L23.5534 259.073C23.5534 259.073 -6.60515 245.02 -23.1727 243.81C-16.1425 253.032 15.1466 266.148 15.1466 266.148L12.8219 268.107L26.4463 273.709L23.4636 276.225L32.3604 278.451L29.7067 280.688L37.6733 282.509L34.51 285.161L45.6874 288.399L43.1983 290.497L55.5986 294.48L52.6159 296.996L66.2179 301.731L63.7287 303.829L80.199 307.914L77.7098 310.012L93.6729 312.169L89.8516 315.379L107.216 316.654L104.398 319.03L121.785 321.174L118.802 323.69L134.487 324.019L132.656 325.56L151.03 326.867L148.87 328.686C157.497 328.254 177.861 335.364 184.553 337.8C179.235 337.975 165.751 338.253 161.402 336.583L161.739 337.947L151.062 335.48L151.35 336.64L142.607 334.1L143.077 335.999L132.571 334.16L133.009 335.955L122.916 333.649L123.509 336.07L113.768 334.483L114.164 336.064L103.239 335.447L103.634 337.028L93.9809 337.263L94.4509 339.162L85.8066 339.202L86.2018 340.783L78.5721 340.618L79.0581 342.617L73.8509 342.231L74.2621 343.912L68.3642 343.591L68.8342 345.49L58.7669 346.191L59.13 347.669C59.13 347.669 35.8984 349.426 27.7531 353.26C37.3831 355.472 60.4385 352.999 60.4385 352.999L60.8016 354.476L70.7621 353.353L71.2321 355.252L76.7187 353.892L77.1299 355.573L81.9313 354.269L82.4173 356.268L89.6357 354.751L90.0309 356.332L98.3067 354.825L98.7767 356.723L108.11 355.225L108.505 356.806L118.655 354.264L119.05 355.845L127.605 352.591L128.198 355.012L136.742 350.999L137.185 352.784L146.356 349.147L146.826 351.046L153.961 347.05L154.25 348.21L163.271 343.938L163.608 345.302C167.005 342.903 180.338 340.725 185.352 339.971C173.529 363.318 152.941 393.257 152.941 393.257L163.878 395.475C163.872 390.226 184.824 354.939 193.201 341.066C195.286 342.569 205.895 350.422 206.309 353.951L207.917 352.981L210.949 359.697L212.319 358.873L214.111 364.68L216.352 363.331L220.126 369.593L222.234 368.325L225.138 374.658L227.989 372.936L231.646 378.667L233.515 377.545L239.149 383.288L241.017 382.166L247.022 386.774L249.262 385.425L254.41 389.655L256.279 388.533L260.572 392.384L262.923 390.96L265.488 393.759L267.468 392.562L270.527 395.655L272.767 394.306L279.643 398.843L281.384 397.792C281.384 397.792 297.421 408.193 307.306 409.938C304.546 403.893 287.665 394.001 287.665 394.001L289.406 392.95L282.031 388.712L284.272 387.363L279.233 385.466L281.213 384.269L276.663 382.677L279.015 381.253L272.742 378.599L274.611 377.477L267.727 374.288L269.967 372.939L262.466 369.226L264.334 368.104L254.979 364.609L256.848 363.486L247.489 361.2L250.339 359.478L239.993 357.639L242.106 356.361L231.886 353.997L234.126 352.648L224.63 351.489L226 350.665L215.026 348.742L216.635 347.773C211.518 347.513 200.986 342.375 196.898 340.293C204.634 340.782 227.924 342.524 234.426 346.024L234.481 343.778L250.481 349.442L250.526 347.54L263.412 353.004L263.493 349.899L279.523 354.532L279.599 351.599L294.758 356.92L294.849 352.953L309.752 357.055L309.818 354.466L327.019 357.209L327.085 354.62L342.627 355.795L342.708 352.691L356.551 354.029L356.616 351.44L368.748 352.928L368.818 349.649L376.986 351.1L377.057 348.339L386.367 349.806L386.448 346.701L402.861 347.189L402.709 344.739ZM195.91 336.421L196.373 336.807C196.118 336.82 195.868 336.823 195.65 336.833C195.746 336.69 195.82 336.554 195.91 336.421ZM266.789 305.136C274.902 301.36 283.112 297.669 291.273 293.935L315.89 282.847L340.646 271.863C348.94 268.243 357.186 264.581 365.534 260.993C382.149 253.768 398.908 246.67 415.832 239.692C399.834 247.441 383.697 255.054 367.411 262.551C359.298 266.326 351.089 270.018 342.927 273.752L318.305 284.849L293.565 295.836C285.271 299.457 277.025 303.119 268.677 306.707C252.062 313.931 235.303 321.03 218.363 328.005C234.345 320.252 250.487 312.63 266.789 305.136ZM263.681 200.307C268.192 192.259 272.624 184.194 277.204 176.149C286.263 160.049 295.573 144.011 305.127 128.011C297.071 144.314 288.782 160.56 280.233 176.763C276.009 184.87 271.641 192.947 267.348 201.05L254.239 225.293L240.924 249.492C236.413 257.541 231.976 265.615 227.401 273.65C218.346 289.741 209.032 305.789 199.499 321.782C207.549 305.488 215.859 289.236 224.403 273.043C228.628 264.936 232.979 256.855 237.289 248.755L250.381 224.51L263.681 200.307ZM159.849 284.638C156.686 278.716 153.676 272.771 150.587 266.843L141.559 249.008L132.733 231.128C129.861 225.157 126.932 219.195 124.119 213.215C118.419 201.26 112.968 189.269 107.778 177.224C114.487 188.983 120.952 200.802 127.152 212.653C130.315 218.575 133.325 224.52 136.414 230.449L145.458 248.287L154.289 266.157C157.161 272.128 160.106 278.092 162.903 284.07C168.603 296.025 174.054 308.015 179.244 320.061C172.519 308.298 166.064 296.493 159.849 284.638ZM135.543 314.806C129.398 312.178 123.332 309.501 117.219 306.846L98.9902 298.809L80.8625 290.684C74.8447 287.951 68.8163 285.239 62.8304 282.481C50.8213 277 38.9396 271.416 27.1588 265.744C39.6243 270.842 51.9624 276.044 64.1997 281.333C70.3449 283.961 76.4104 286.638 82.5238 289.293L100.752 297.33L118.885 305.446C124.903 308.178 130.932 310.891 136.917 313.649C148.927 319.129 160.808 324.713 172.589 330.385C160.124 325.287 147.78 320.095 135.543 314.806ZM147.83 342.675C143.272 343.144 138.693 343.555 134.129 344.001L120.407 345.268L106.669 346.467C102.09 346.845 97.5161 347.245 92.9261 347.611C83.7568 348.354 74.5661 349.039 65.3647 349.646C74.4646 348.608 83.5805 347.638 92.7072 346.745C97.2652 346.277 101.85 345.856 106.408 345.42L120.13 344.153L133.868 342.954C138.447 342.576 143.021 342.175 147.611 341.81C156.786 341.057 165.971 340.382 175.172 339.775C166.073 340.813 156.957 341.783 147.83 342.675ZM194.219 339.199L194.204 339.909L193.546 340.304C193.789 339.922 194.012 339.546 194.219 339.199ZM222.358 356.957C225.681 358.916 228.946 360.917 232.242 362.892L242.068 368.869L251.815 374.895C255.032 376.919 258.291 378.93 261.487 380.96C267.921 385.008 274.27 389.114 280.539 393.269C273.765 389.422 267.071 385.527 260.462 381.573C257.139 379.614 253.869 377.623 250.578 375.638L240.752 369.661L231.005 363.635C227.788 361.611 224.529 359.6 221.333 357.57C214.899 353.522 208.55 349.416 202.281 345.262C209.055 349.108 215.744 353.013 222.358 356.957ZM348.5 340.41C340.998 340.433 333.507 340.404 326.005 340.394L303.509 340.282L281.019 340.062C273.517 339.956 266.031 339.885 258.528 339.746C243.535 339.513 228.552 339.163 213.563 338.694C228.567 338.454 243.565 338.32 258.564 338.317C266.071 338.284 273.557 338.322 281.059 338.332L303.549 338.454L326.04 338.674C333.542 338.78 341.028 338.851 348.53 338.99C363.524 339.223 378.507 339.572 393.501 340.032C378.497 340.272 363.499 340.406 348.5 340.41Z" stroke="url(#paint1_linear_6_1760)" stroke-opacity="0.2" stroke-width="0.5" stroke-miterlimit="10"/>
<defs>
<linearGradient id="paint0_linear_6_1760" x1="-3.51507" y1="193.72" x2="417.946" y2="423.464" gradientUnits="userSpaceOnUse">
<stop stop-color="#6BC976"/>
<stop offset="0.2815" stop-color="#5DBA65"/>
<stop offset="0.8381" stop-color="#399338"/>
<stop offset="1" stop-color="#2E862A"/>
</linearGradient>
<linearGradient id="paint1_linear_6_1760" x1="2.66816" y1="194.831" x2="413.664" y2="418.871" gradientUnits="userSpaceOnUse">
<stop stop-color="#2E862A"/>
<stop offset="0.1619" stop-color="#399338"/>
<stop offset="0.7185" stop-color="#5DBA65"/>
<stop offset="1" stop-color="#6BC976"/>
</linearGradient>
</defs>
</svg>
