<svg width="1335" height="463" viewBox="0 0 1335 463" fill="none" xmlns="http://www.w3.org/2000/svg">
<path d="M1327.58 191.893C1324.15 191.893 1321.38 195.352 1321.07 199.677H1258.63C1258.37 195.352 1255.55 191.893 1252.12 191.893C1251.14 191.893 1250.2 192.181 1249.35 192.7L1218.16 122.879C1219.85 121.323 1220.97 118.786 1220.97 115.903C1220.97 113.02 1219.85 110.483 1218.16 108.927L1249.35 39.1631C1250.2 39.682 1251.14 39.9703 1252.12 39.9703C1255.73 39.9703 1258.68 36.165 1258.68 31.4949C1258.68 26.8248 1255.73 23.0195 1252.12 23.0195C1248.5 23.0195 1245.56 26.8248 1245.56 31.4949C1245.56 34.3777 1246.67 36.9722 1248.41 38.4712L1217.22 108.235C1216.37 107.716 1215.43 107.427 1214.45 107.427C1211.02 107.427 1208.25 110.887 1207.94 115.211H1145.5C1145.24 110.887 1142.42 107.427 1138.99 107.427C1138.01 107.427 1137.07 107.716 1136.22 108.235L1105.03 38.3559C1106.72 36.7992 1107.84 34.32 1107.84 31.4372C1107.84 28.5544 1106.72 26.0753 1105.03 24.5186L1136.22 -45.3025C1137.07 -44.7836 1138.01 -44.4954 1138.99 -44.4954C1142.6 -44.4954 1145.55 -48.3006 1145.55 -52.9707C1145.55 -57.6408 1142.6 -61.4461 1138.99 -61.4461C1135.37 -61.4461 1132.43 -57.6408 1132.43 -52.9707C1132.43 -50.0879 1133.54 -47.5511 1135.24 -45.9944L1104.04 23.8267C1103.2 23.3078 1102.21 22.9619 1101.23 22.9619C1097.8 22.9619 1095.03 26.4212 1094.72 30.7454H1032.28C1032.02 26.4212 1029.2 22.9619 1025.77 22.9619C1024.79 22.9619 1023.85 23.2502 1023 23.7691L991.807 -45.9944C993.503 -47.5511 994.618 -50.0879 994.618 -52.9707C994.618 -57.6408 991.673 -61.4461 988.058 -61.4461C984.443 -61.4461 981.498 -57.6408 981.498 -52.9707C981.498 -48.3006 984.443 -44.4954 988.058 -44.4954C989.04 -44.4954 989.977 -44.7836 990.825 -45.3025L1022.02 24.4609C1020.28 26.0176 1019.16 28.5544 1019.16 31.4372C1019.16 34.32 1020.28 36.9146 1022.02 38.4136L990.825 108.177C989.977 107.658 989.04 107.37 988.058 107.37C984.622 107.37 981.855 110.829 981.542 115.153H919.109C918.841 110.829 916.03 107.37 912.593 107.37C911.611 107.37 910.674 107.658 909.826 108.177L878.632 38.2983C880.328 36.7416 881.443 34.2624 881.443 31.3796C881.443 26.7095 878.498 22.9042 874.883 22.9042C871.447 22.9042 868.68 26.3635 868.368 30.6877H805.934C805.666 26.3635 802.855 22.9042 799.418 22.9042C795.804 22.9042 792.858 26.7095 792.858 31.3796C792.858 34.2624 793.974 36.8569 795.714 38.3559L764.52 108.119C763.672 107.6 762.735 107.312 761.753 107.312C758.317 107.312 755.55 110.772 755.237 115.096H692.804C692.536 110.772 689.724 107.312 686.288 107.312C685.306 107.312 684.369 107.6 683.477 108.119L652.282 38.2406C653.978 36.6839 655.094 34.2047 655.094 31.3219C655.094 26.6518 652.148 22.8465 648.533 22.8465C644.919 22.8465 641.973 26.6518 641.973 31.3219C641.973 35.9921 644.919 39.7973 648.533 39.7973C649.56 39.7973 650.497 39.4514 651.345 38.9325L682.539 108.754C680.844 110.31 679.728 112.847 679.728 115.73C679.728 118.613 680.844 121.15 682.539 122.706L651.345 192.527C650.497 192.008 649.56 191.72 648.578 191.72C645.142 191.72 642.375 195.18 642.062 199.504H579.629C579.361 195.18 576.549 191.72 573.113 191.72C572.131 191.72 571.194 192.008 570.346 192.527L539.152 122.706C540.848 121.15 541.963 118.613 541.963 115.73C541.963 111.06 539.018 107.255 535.403 107.255C531.967 107.255 529.155 110.714 528.888 115.038H466.454C466.186 110.714 463.375 107.255 459.938 107.255C458.957 107.255 458.019 107.543 457.171 108.062L425.977 38.183C427.673 36.6263 428.788 34.1471 428.788 31.2643C428.788 26.5942 425.843 22.7889 422.228 22.7889C418.792 22.7889 415.98 26.2483 415.713 30.5724H353.279C353.011 26.2483 350.2 22.7889 346.763 22.7889C343.149 22.7889 340.203 26.5942 340.203 31.2643C340.203 34.1471 341.319 36.7416 343.059 38.2406L311.865 108.004C311.017 107.485 310.08 107.197 309.098 107.197C305.662 107.197 302.85 110.656 302.582 114.98H240.149C239.881 110.656 237.07 107.197 233.633 107.197C232.651 107.197 231.67 107.485 230.822 108.004L199.627 38.1253C201.323 36.5686 202.439 34.0894 202.439 31.2066C202.439 28.3239 201.323 25.8446 199.627 24.2879L230.822 -45.5332C231.67 -45.0143 232.607 -44.726 233.633 -44.726C237.248 -44.726 240.193 -48.5312 240.193 -53.2014C240.193 -57.8715 237.248 -61.6768 233.633 -61.6768C230.018 -61.6768 227.073 -57.8715 227.073 -53.2014C227.073 -50.3186 228.189 -47.7817 229.885 -46.225L198.735 23.942C197.887 23.4231 196.905 23.0772 195.923 23.0772C192.487 23.0772 189.675 26.5365 189.408 30.8607H126.974C126.706 26.5365 123.895 23.0772 120.458 23.0772C119.477 23.0772 118.539 23.3654 117.691 23.8843L86.4969 -45.8791C88.1928 -47.4358 89.3085 -49.9726 89.3085 -52.8554C89.3085 -57.5255 86.3631 -61.3308 82.7483 -61.3308C79.1334 -61.3308 76.188 -57.5255 76.188 -52.8554C76.188 -48.1853 79.1334 -44.38 82.7483 -44.38C83.7301 -44.38 84.6672 -44.6683 85.5152 -45.1872L116.71 24.5762C114.969 26.1329 113.854 28.6698 113.854 31.5526C113.854 34.4354 114.969 37.0299 116.71 38.5289L85.5152 108.292C84.6672 107.773 83.7301 107.485 82.7483 107.485C79.312 107.485 76.5004 110.944 76.2327 115.269H13.8883C13.6205 110.944 10.809 107.485 7.37272 107.485C3.75791 107.485 0.8125 111.29 0.8125 115.961C0.8125 120.631 3.75791 124.436 7.37272 124.436C10.809 124.436 13.5759 120.977 13.8883 116.652H76.3219C76.5897 120.977 79.4012 124.436 82.8375 124.436C83.8193 124.436 84.7565 124.148 85.6044 123.571L116.799 193.392C115.103 194.949 113.987 197.486 113.987 200.369C113.987 203.251 115.103 205.788 116.799 207.345L85.6044 277.166C84.7565 276.647 83.8193 276.301 82.8375 276.301C79.2227 276.301 76.2773 280.106 76.2773 284.777C76.2773 289.447 79.2227 293.252 82.8375 293.252C86.4523 293.252 89.3977 289.447 89.3977 284.777C89.3977 281.894 88.2821 279.357 86.5862 277.8L117.781 207.979C118.629 208.498 119.566 208.786 120.548 208.786C123.984 208.786 126.751 205.327 127.063 201.003H189.497C189.765 205.327 192.576 208.786 196.012 208.786C196.994 208.786 197.931 208.498 198.824 207.979L230.018 277.8C228.323 279.357 227.207 281.894 227.207 284.777C227.207 289.447 230.152 293.252 233.767 293.252C237.203 293.252 239.97 289.793 240.283 285.468H302.716C302.984 289.793 305.796 293.252 309.232 293.252C310.214 293.252 311.151 292.964 311.999 292.387L343.193 362.266C341.497 363.823 340.382 366.302 340.382 369.184C340.382 372.067 341.497 374.546 343.193 376.103L311.999 445.982C311.151 445.463 310.214 445.117 309.232 445.117C305.617 445.117 302.672 448.922 302.672 453.592C302.672 458.263 305.617 462.068 309.232 462.068C312.847 462.068 315.792 458.263 315.792 453.592C315.792 450.71 314.676 448.173 312.981 446.616L344.175 376.795C345.023 377.314 346.005 377.66 346.987 377.66C350.423 377.66 353.19 374.201 353.502 369.876H415.936C416.204 374.201 419.015 377.66 422.451 377.66C423.433 377.66 424.37 377.372 425.218 376.853L456.413 446.616C454.717 448.173 453.601 450.71 453.601 453.592C453.601 458.263 456.547 462.068 460.161 462.068C463.776 462.068 466.722 458.263 466.722 453.592C466.722 448.922 463.776 445.117 460.161 445.117C459.18 445.117 458.243 445.405 457.395 445.982L426.2 376.219C427.941 374.719 429.056 372.125 429.056 369.242C429.056 366.359 427.941 363.765 426.2 362.266L457.395 292.502C458.243 293.021 459.18 293.367 460.161 293.367C463.598 293.367 466.409 289.908 466.677 285.584H529.111C529.378 289.908 532.19 293.367 535.626 293.367C536.608 293.367 537.545 293.079 538.393 292.502L569.588 362.381C567.892 363.938 566.776 366.417 566.776 369.3C566.776 373.97 569.722 377.775 573.336 377.775C576.773 377.775 579.54 374.316 579.852 369.992H642.286C642.553 374.316 645.365 377.775 648.801 377.775C652.416 377.775 655.361 373.97 655.361 369.3C655.361 366.417 654.246 363.822 652.505 362.323L683.7 292.56C684.548 293.079 685.485 293.367 686.511 293.367C689.948 293.367 692.714 289.908 693.027 285.584H755.461C755.728 289.908 758.54 293.367 761.976 293.367C762.958 293.367 763.895 293.079 764.743 292.56L795.938 362.381C794.242 363.938 793.17 366.417 793.17 369.3C793.17 372.183 794.286 374.662 795.938 376.219L764.743 446.097C763.895 445.578 762.958 445.29 761.976 445.29C758.361 445.29 755.416 449.095 755.416 453.765C755.416 458.436 758.361 462.241 761.976 462.241C765.591 462.241 768.536 458.436 768.536 453.765C768.536 450.883 767.421 448.346 765.725 446.789L796.919 376.968C797.767 377.487 798.749 377.833 799.731 377.833C803.167 377.833 805.934 374.373 806.246 370.049H868.501C868.769 374.373 871.581 377.833 875.017 377.833C875.999 377.833 876.936 377.545 877.784 377.026L908.978 446.789C907.283 448.346 906.167 450.883 906.167 453.765C906.167 458.436 909.112 462.241 912.727 462.241C916.342 462.241 919.287 458.436 919.287 453.765C919.287 449.095 916.342 445.29 912.727 445.29C911.745 445.29 910.808 445.578 909.96 446.097L878.766 376.334C880.506 374.777 881.622 372.24 881.622 369.357C881.622 366.475 880.506 363.88 878.766 362.381L909.96 292.618C910.808 293.137 911.745 293.425 912.727 293.425C916.163 293.425 918.975 289.966 919.243 285.641H981.676C981.944 289.966 984.756 293.425 988.192 293.425C989.174 293.425 990.111 293.137 990.959 292.618L1022.15 362.439C1020.46 363.995 1019.34 366.475 1019.34 369.357C1019.34 374.028 1022.29 377.833 1025.9 377.833C1029.34 377.833 1032.11 374.373 1032.42 370.049H1094.85C1095.12 374.373 1097.93 377.833 1101.37 377.833C1104.98 377.833 1107.93 374.028 1107.93 369.357C1107.93 366.475 1106.81 363.88 1105.07 362.381L1136.27 292.618C1137.11 293.137 1138.05 293.425 1139.03 293.425C1142.47 293.425 1145.24 289.966 1145.55 285.641H1207.98C1208.25 289.966 1211.06 293.425 1214.5 293.425C1215.48 293.425 1216.42 293.137 1217.26 292.618L1248.46 362.439C1246.76 363.995 1245.65 366.475 1245.65 369.357C1245.65 374.028 1248.59 377.833 1252.21 377.833C1255.82 377.833 1258.77 374.028 1258.77 369.357C1258.77 364.687 1255.82 360.882 1252.21 360.882C1251.18 360.882 1250.24 361.228 1249.4 361.747L1218.2 291.926C1219.9 290.369 1221.01 287.832 1221.01 284.949C1221.01 282.067 1219.9 279.53 1218.2 277.973L1249.4 208.152C1250.24 208.671 1251.18 208.959 1252.16 208.959C1255.6 208.959 1258.37 205.5 1258.68 201.176H1321.11C1321.38 205.5 1324.19 208.959 1327.63 208.959C1331.24 208.959 1334.19 205.154 1334.19 200.484C1334.19 195.814 1331.2 191.893 1327.58 191.893ZM1023 39.2208C1023.85 39.7397 1024.74 40.028 1025.77 40.028C1029.2 40.028 1031.97 36.5686 1032.28 32.2444H1094.72C1094.99 36.5686 1097.8 40.028 1101.23 40.028C1102.26 40.028 1103.2 39.682 1104.04 39.1631L1135.24 108.984C1133.54 110.541 1132.43 113.078 1132.43 115.961C1132.43 118.843 1133.54 121.38 1135.24 122.937L1104.04 192.758C1103.2 192.239 1102.26 191.951 1101.28 191.951C1097.84 191.951 1095.07 195.41 1094.76 199.734H1032.33C1032.06 195.41 1029.25 191.951 1025.81 191.951C1024.83 191.951 1023.89 192.239 1023.05 192.758L991.851 122.937C993.547 121.38 994.663 118.843 994.663 115.961C994.663 113.078 993.547 110.541 991.851 108.984L1023 39.2208ZM988.103 276.301C984.666 276.301 981.899 279.76 981.587 284.085H919.153C918.886 279.76 916.074 276.301 912.638 276.301C911.656 276.301 910.719 276.589 909.871 277.108L878.676 207.287C880.372 205.73 881.488 203.194 881.488 200.311C881.488 197.428 880.372 194.891 878.676 193.335L909.871 123.513C910.719 124.032 911.656 124.378 912.638 124.378C916.074 124.378 918.886 120.919 919.153 116.595H981.587C981.855 120.919 984.666 124.378 988.103 124.378C989.084 124.378 990.022 124.09 990.87 123.513L1022.06 193.335C1020.37 194.891 1019.25 197.428 1019.25 200.311C1019.25 203.194 1020.37 205.73 1022.06 207.287L990.87 277.108C990.022 276.589 989.084 276.301 988.103 276.301ZM796.696 39.2208C797.544 39.7397 798.437 40.028 799.463 40.028C802.899 40.028 805.666 36.5686 805.979 32.2444H868.412C868.68 36.5686 871.491 40.028 874.928 40.028C875.954 40.028 876.891 39.682 877.739 39.1631L908.934 108.984C907.238 110.541 906.122 113.078 906.122 115.961C906.122 118.843 907.238 121.38 908.934 122.937L877.739 192.758C876.891 192.239 875.954 191.951 874.928 191.951C871.491 191.951 868.725 195.41 868.412 199.734H806.023C805.755 195.41 802.944 191.951 799.508 191.951C798.526 191.951 797.589 192.239 796.741 192.758L765.546 122.937C767.242 121.38 768.358 118.843 768.358 115.961C768.358 113.078 767.242 110.541 765.546 108.984L796.696 39.2208ZM683.566 123.629C684.414 124.148 685.351 124.494 686.377 124.494C689.814 124.494 692.581 121.034 692.893 116.71H755.327C755.594 121.034 758.406 124.494 761.842 124.494C762.824 124.494 763.761 124.205 764.609 123.629L795.804 193.45C794.108 195.007 792.992 197.543 792.992 200.426C792.992 203.309 794.108 205.846 795.804 207.403L764.609 277.224C763.761 276.705 762.824 276.416 761.842 276.416C758.406 276.416 755.639 279.876 755.327 284.2H692.893C692.625 279.876 689.814 276.416 686.377 276.416C685.396 276.416 684.458 276.705 683.566 277.224L652.371 207.403C654.067 205.846 655.183 203.309 655.183 200.426C655.183 197.543 654.067 195.007 652.371 193.45L683.566 123.629ZM569.454 193.392C567.758 194.949 566.642 197.486 566.642 200.369C566.642 203.251 567.758 205.788 569.454 207.345L538.259 277.166C537.411 276.647 536.474 276.301 535.492 276.301C532.056 276.301 529.245 279.76 528.977 284.085H466.543C466.275 279.76 463.464 276.301 460.028 276.301C459.046 276.301 458.109 276.589 457.261 277.166L426.066 207.345C427.762 205.788 428.878 203.251 428.878 200.369C428.878 197.486 427.762 194.949 426.066 193.392L457.261 123.571C458.109 124.09 459.046 124.436 460.028 124.436C463.464 124.436 466.275 120.977 466.543 116.652H528.977C529.245 120.977 532.056 124.436 535.492 124.436C536.474 124.436 537.411 124.148 538.259 123.571L569.454 193.392ZM344.041 39.2208C344.889 39.7397 345.826 40.028 346.808 40.028C350.244 40.028 353.056 36.5686 353.324 32.2444H415.757C416.025 36.5686 418.837 40.028 422.273 40.028C423.299 40.028 424.236 39.682 425.084 39.1631L456.279 108.984C454.583 110.541 453.467 113.078 453.467 115.961C453.467 118.843 454.583 121.38 456.279 122.937L425.084 192.758C424.236 192.239 423.299 191.951 422.318 191.951C418.881 191.951 416.114 195.41 415.802 199.734H353.368C353.101 195.41 350.289 191.951 346.853 191.951C345.871 191.951 344.934 192.239 344.086 192.758L312.891 122.937C314.587 121.38 315.703 118.843 315.703 115.961C315.703 113.078 314.587 110.541 312.891 108.984L344.041 39.2208ZM86.5416 122.937C88.2374 121.38 89.3531 118.843 89.3531 115.961C89.3531 113.078 88.2374 110.541 86.5416 108.984L117.736 39.2208C118.584 39.7397 119.521 40.028 120.503 40.028C123.939 40.028 126.751 36.5686 127.019 32.2444H189.452C189.72 36.5686 192.531 40.028 195.968 40.028C196.994 40.028 197.931 39.682 198.779 39.1631L229.974 108.984C228.278 110.541 227.162 113.078 227.162 115.961C227.162 118.843 228.278 121.38 229.974 122.937L198.779 192.758C197.931 192.239 196.994 191.951 195.968 191.951C192.531 191.951 189.765 195.41 189.452 199.734H127.019C126.751 195.41 123.939 191.951 120.503 191.951C119.521 191.951 118.584 192.239 117.736 192.758L86.5416 122.937ZM199.716 207.345C201.412 205.788 202.528 203.251 202.528 200.369C202.528 197.486 201.412 194.949 199.716 193.392L230.911 123.571C231.759 124.09 232.696 124.436 233.722 124.436C237.159 124.436 239.926 120.977 240.238 116.652H302.672C302.939 120.977 305.751 124.436 309.187 124.436C310.169 124.436 311.106 124.148 311.954 123.571L343.149 193.392C341.453 194.949 340.337 197.486 340.337 200.369C340.337 203.251 341.453 205.788 343.149 207.345L311.954 277.166C311.106 276.647 310.169 276.301 309.187 276.301C305.751 276.301 302.939 279.76 302.672 284.085H240.238C239.97 279.76 237.159 276.301 233.722 276.301C232.741 276.301 231.759 276.589 230.911 277.166L199.716 207.345ZM425.084 361.516C424.236 360.997 423.299 360.709 422.318 360.709C418.881 360.709 416.114 364.168 415.802 368.493H353.368C353.101 364.168 350.289 360.709 346.853 360.709C345.826 360.709 344.889 361.055 344.041 361.574L312.847 291.753C314.543 290.196 315.658 287.659 315.658 284.777C315.658 281.894 314.543 279.357 312.847 277.8L344.041 207.979C344.889 208.498 345.826 208.786 346.808 208.786C350.244 208.786 353.011 205.327 353.324 201.003H415.757C416.025 205.327 418.837 208.786 422.273 208.786C423.255 208.786 424.192 208.498 425.04 207.979L456.234 277.8C454.538 279.357 453.423 281.894 453.423 284.777C453.423 287.659 454.538 290.196 456.234 291.753L425.084 361.516ZM651.434 361.516C650.586 360.997 649.649 360.709 648.667 360.709C645.231 360.709 642.464 364.168 642.152 368.493H579.718C579.45 364.168 576.639 360.709 573.203 360.709C572.176 360.709 571.239 361.055 570.391 361.574L539.196 291.753C540.892 290.196 542.008 287.659 542.008 284.777C542.008 281.894 540.892 279.357 539.196 277.8L570.391 207.979C571.239 208.498 572.176 208.786 573.158 208.786C576.594 208.786 579.361 205.327 579.673 201.003H642.107C642.375 205.327 645.186 208.786 648.623 208.786C649.604 208.786 650.542 208.498 651.39 207.979L682.584 277.8C680.888 279.357 679.773 281.894 679.773 284.777C679.773 287.659 680.888 290.196 682.584 291.753L651.434 361.516ZM877.739 361.516C876.891 360.997 875.954 360.709 874.972 360.709C871.536 360.709 868.769 364.168 868.457 368.493H806.023C805.755 364.168 802.944 360.709 799.508 360.709C798.481 360.709 797.544 361.055 796.696 361.574L765.502 291.753C767.197 290.196 768.313 287.659 768.313 284.777C768.313 281.894 767.197 279.357 765.502 277.8L796.696 207.979C797.544 208.498 798.481 208.786 799.463 208.786C802.899 208.786 805.666 205.327 805.979 201.003H868.412C868.68 205.327 871.491 208.786 874.928 208.786C875.91 208.786 876.891 208.498 877.739 207.979L908.934 277.8C907.238 279.357 906.122 281.894 906.122 284.777C906.122 287.659 907.238 290.196 908.934 291.753L877.739 361.516ZM1104.04 361.516C1103.2 360.997 1102.26 360.709 1101.28 360.709C1097.84 360.709 1095.07 364.168 1094.76 368.493H1032.33C1032.06 364.168 1029.25 360.709 1025.81 360.709C1024.79 360.709 1023.85 361.055 1023 361.574L991.807 291.753C993.503 290.196 994.618 287.659 994.618 284.777C994.618 281.894 993.503 279.357 991.807 277.8L1023 207.979C1023.85 208.498 1024.79 208.786 1025.77 208.786C1029.2 208.786 1031.97 205.327 1032.28 201.003H1094.72C1094.99 205.327 1097.8 208.786 1101.23 208.786C1102.21 208.786 1103.2 208.498 1104 207.979L1135.19 277.8C1133.5 279.357 1132.38 281.894 1132.38 284.777C1132.38 287.659 1133.5 290.196 1135.19 291.753L1104.04 361.516ZM1217.22 277.108C1216.37 276.589 1215.43 276.301 1214.45 276.301C1211.02 276.301 1208.25 279.76 1207.94 284.085H1145.5C1145.24 279.76 1142.42 276.301 1138.99 276.301C1138.01 276.301 1137.07 276.589 1136.22 277.108L1105.03 207.287C1106.72 205.73 1107.84 203.194 1107.84 200.311C1107.84 197.428 1106.72 194.891 1105.03 193.335L1136.22 123.513C1137.07 124.032 1138.01 124.378 1138.99 124.378C1142.42 124.378 1145.19 120.919 1145.5 116.595H1207.94C1208.2 120.919 1211.02 124.378 1214.45 124.378C1215.43 124.378 1216.37 124.09 1217.22 123.513L1248.41 193.335C1246.72 194.891 1245.6 197.428 1245.6 200.311C1245.6 203.194 1246.72 205.73 1248.41 207.287L1217.22 277.108Z" fill="url(#paint0_linear_5_1062)"/>
<defs>
<linearGradient id="paint0_linear_5_1062" x1="128.976" y1="200.37" x2="1210.03" y2="200.37" gradientUnits="userSpaceOnUse">
<stop stop-color="#4E7853"/>
<stop offset="0.5" stop-color="#8CBF5F"/>
<stop offset="1" stop-color="#52AC62"/>
</linearGradient>
</defs>
</svg>
