<svg width="1440" height="413" viewBox="0 0 1440 413" fill="none" xmlns="http://www.w3.org/2000/svg">
<path opacity="0.3" d="M-42.4522 166.838C-38.4773 166.838 -35.2616 163.487 -34.949 159.262H37.0905C37.4031 163.487 40.6188 166.838 44.5937 166.838C45.7549 166.838 46.8267 166.547 47.8093 166.013L83.8067 233.859C81.8416 235.365 80.5464 237.841 80.5464 240.61C80.5464 243.426 81.8416 245.855 83.8067 247.36L47.8093 315.158C46.8267 314.673 45.7548 314.381 44.6383 314.381C40.4401 314.381 37.0458 318.072 37.0458 322.637C37.0458 327.154 40.4401 330.893 44.6383 330.893C48.7918 330.893 52.1861 327.203 52.1861 322.637C52.1861 319.82 50.891 317.344 48.8812 315.838L84.8786 248.04C85.8611 248.526 86.933 248.866 88.0942 248.866C92.0691 248.866 95.2847 245.515 95.5974 241.29H167.681C167.994 245.515 171.254 248.866 175.185 248.866C176.346 248.866 177.418 248.574 178.4 248.04L214.442 315.887C212.522 317.392 211.227 319.821 211.227 322.589C211.227 325.357 212.522 327.834 214.442 329.291L178.4 397.137C177.418 396.652 176.346 396.312 175.185 396.312C170.986 396.312 167.592 400.003 167.592 404.519C167.592 409.084 170.986 412.775 175.185 412.775C179.383 412.775 182.777 409.084 182.777 404.519C182.777 401.702 181.482 399.274 179.517 397.769L215.559 329.922C216.541 330.456 217.658 330.748 218.819 330.748C222.794 330.748 226.01 327.397 226.322 323.172H298.407C298.719 327.397 301.935 330.748 305.91 330.748C307.026 330.748 308.143 330.456 309.081 329.971L345.078 397.769C343.113 399.274 341.818 401.751 341.818 404.519C341.818 409.084 345.212 412.775 349.41 412.775C353.564 412.775 356.958 409.084 356.958 404.519C356.958 400.003 353.564 396.312 349.41 396.312C348.249 396.312 347.177 396.603 346.195 397.137L310.197 329.339C312.207 327.834 313.502 325.357 313.502 322.54C313.502 319.723 312.207 317.247 310.197 315.741L346.195 247.943C347.177 248.429 348.249 248.769 349.41 248.769C353.385 248.769 356.601 245.418 356.913 241.192H428.997C429.31 245.418 432.526 248.769 436.501 248.769C437.662 248.769 438.734 248.477 439.716 247.943L475.758 315.79C473.793 317.295 472.543 319.723 472.543 322.492C472.543 327.008 475.937 330.748 480.135 330.748C484.11 330.748 487.326 327.397 487.638 323.172H559.723C560.035 327.397 563.251 330.748 567.226 330.748C571.424 330.748 574.818 327.057 574.818 322.492C574.818 319.675 573.523 317.198 571.513 315.692L607.511 247.895C608.493 248.38 609.565 248.72 610.726 248.72C614.701 248.72 617.917 245.369 618.229 241.144H690.269C690.582 245.369 693.797 248.72 697.772 248.72C698.933 248.72 700.005 248.429 700.988 247.895L737.03 315.741C735.109 317.247 733.814 319.675 733.814 322.443C733.814 326.96 737.208 330.699 741.362 330.699C745.56 330.699 748.954 327.008 748.954 322.443C748.954 317.878 745.56 314.187 741.362 314.187C740.201 314.187 739.084 314.527 738.102 315.013L702.06 247.166C704.025 245.66 705.32 243.232 705.32 240.415C705.32 237.599 704.025 235.17 702.06 233.665L738.057 165.818C739.04 166.304 740.112 166.644 741.273 166.644C745.248 166.644 748.463 163.293 748.776 159.068H820.815C821.128 163.293 824.344 166.644 828.318 166.644C829.48 166.644 830.552 166.353 831.534 165.818L867.576 233.665C865.611 235.17 864.316 237.647 864.316 240.415C864.316 244.932 867.71 248.672 871.908 248.672C875.883 248.672 879.099 245.321 879.412 241.095H951.451C951.764 245.321 954.979 248.672 958.954 248.672C960.115 248.672 961.187 248.38 962.17 247.846L998.212 315.692C996.247 317.198 994.996 319.626 994.996 322.394C994.996 326.911 998.391 330.651 1002.59 330.651C1006.56 330.651 1009.78 327.3 1010.09 323.074H1082.13C1082.44 327.3 1085.66 330.651 1089.63 330.651C1093.79 330.651 1097.23 326.96 1097.23 322.394C1097.23 319.578 1095.93 317.101 1093.92 315.595L1129.92 247.797C1130.9 248.283 1131.97 248.623 1133.14 248.623C1137.11 248.623 1140.33 245.272 1140.64 241.047H1212.68C1212.99 245.272 1216.21 248.623 1220.18 248.623C1221.34 248.623 1222.41 248.332 1223.4 247.797L1259.44 315.644C1257.52 317.149 1256.22 319.578 1256.22 322.346C1256.22 325.114 1257.52 327.591 1259.44 329.048L1223.4 396.895C1222.41 396.409 1221.34 396.069 1220.18 396.069C1216.03 396.069 1212.63 399.76 1212.63 404.276C1212.63 408.842 1216.03 412.533 1220.18 412.533C1224.38 412.533 1227.77 408.842 1227.77 404.276C1227.77 401.46 1226.48 399.031 1224.51 397.526L1260.56 329.679C1261.54 330.214 1262.65 330.505 1263.82 330.505C1267.79 330.505 1271.01 327.154 1271.32 322.929H1343.36C1343.67 327.154 1346.89 330.505 1350.86 330.505C1351.98 330.505 1353.05 330.214 1354.03 329.728L1390.03 397.526C1388.06 399.031 1386.77 401.508 1386.77 404.276C1386.77 408.842 1390.16 412.533 1394.36 412.533C1398.52 412.533 1401.91 408.842 1401.91 404.276C1401.91 399.76 1398.52 396.069 1394.36 396.069C1393.2 396.069 1392.13 396.36 1391.15 396.895L1355.15 329.097C1357.11 327.591 1358.45 325.114 1358.45 322.297C1358.45 319.481 1357.16 317.004 1355.15 315.498L1391.15 247.7C1392.13 248.186 1393.2 248.526 1394.36 248.526C1398.34 248.526 1401.55 245.175 1401.86 240.95H1473.9C1474.22 245.175 1477.48 248.526 1481.41 248.526C1485.61 248.526 1489 244.835 1489 240.27C1489 235.705 1485.61 232.014 1481.41 232.014C1477.43 232.014 1474.22 235.365 1473.9 239.59H1401.86C1401.55 235.365 1398.34 232.014 1394.36 232.014C1393.2 232.014 1392.13 232.305 1391.15 232.839L1355.15 164.993C1357.11 163.487 1358.41 161.01 1358.41 158.242C1358.41 155.425 1357.11 152.997 1355.15 151.491L1391.15 83.6449C1392.13 84.1306 1393.2 84.4706 1394.36 84.4706C1398.52 84.4706 1401.91 80.7796 1401.91 76.2144C1401.91 71.6978 1398.52 67.9582 1394.36 67.9582C1390.16 67.9582 1386.77 71.6492 1386.77 76.2144C1386.77 79.0312 1388.06 81.4595 1390.03 82.965L1354.03 150.811C1353.05 150.326 1351.98 149.986 1350.82 149.986C1346.84 149.986 1343.63 153.337 1343.31 157.562H1271.32C1271.01 153.337 1267.79 149.986 1263.82 149.986C1262.65 149.986 1261.58 150.277 1260.6 150.811L1224.6 82.965C1226.57 81.4595 1227.86 78.9826 1227.86 76.2144C1227.86 71.6978 1224.47 67.9582 1220.27 67.9582C1216.3 67.9582 1213.08 71.3092 1212.77 75.5345H1140.73C1140.42 71.3092 1137.2 67.9582 1133.22 67.9582C1132.06 67.9582 1130.99 68.2496 1130.01 68.7838L1093.97 0.937363C1095.89 -0.568176 1097.18 -2.99645 1097.18 -5.7647C1097.18 -8.53295 1095.89 -11.0098 1093.97 -12.4668L1130.01 -80.3132C1130.99 -79.8276 1132.06 -79.4876 1133.22 -79.4876C1137.38 -79.4876 1140.77 -83.1786 1140.77 -87.7438C1140.77 -92.2604 1137.38 -96 1133.22 -96C1129.03 -96 1125.63 -92.309 1125.63 -87.7438C1125.63 -84.927 1126.93 -82.4987 1128.89 -80.9932L1092.85 -13.1467C1091.87 -13.681 1090.75 -13.9723 1089.59 -13.9723C1085.61 -13.9723 1082.4 -10.6213 1082.09 -6.39608H1010.05C1009.73 -10.6213 1006.52 -13.9723 1002.54 -13.9723C1001.43 -13.9723 1000.36 -13.681 999.373 -13.1953L963.376 -80.9932C965.341 -82.4987 966.636 -84.9756 966.636 -87.7438C966.636 -92.2604 963.242 -96 959.044 -96C954.89 -96 951.496 -92.309 951.496 -87.7438C951.496 -83.1786 954.89 -79.4876 959.044 -79.4876C960.205 -79.4876 961.277 -79.779 962.259 -80.3132L998.256 -12.5154C996.291 -11.0098 994.952 -8.53298 994.952 -5.71616C994.952 -2.89935 996.247 -0.422485 998.256 1.08306L962.259 68.8809C961.277 68.3467 960.205 68.0553 959.044 68.0553C955.069 68.0553 951.853 71.4064 951.54 75.6316H879.501C879.188 71.4064 875.973 68.0553 871.998 68.0553C870.836 68.0553 869.765 68.3467 868.782 68.8809L832.74 1.03448C834.705 -0.471062 835.956 -2.89934 835.956 -5.66759C835.956 -10.2328 832.561 -13.9238 828.363 -13.9238C824.388 -13.9238 821.173 -10.5727 820.86 -6.3475H748.776C748.463 -10.5727 745.248 -13.9238 741.273 -13.9238C737.075 -13.9238 733.68 -10.2328 733.68 -5.66759C733.68 -2.85077 734.975 -0.373909 736.985 1.13164L700.988 68.9295C700.005 68.4438 698.933 68.1039 697.772 68.1039C693.797 68.1039 690.582 71.4549 690.269 75.6802H618.229C617.917 71.4549 614.701 68.1039 610.726 68.1039C609.565 68.1039 608.493 68.3953 607.511 68.9295L571.469 1.08306C573.389 -0.422485 574.684 -2.85076 574.684 -5.61901C574.684 -8.38726 573.389 -10.8641 571.469 -12.3211L607.511 -80.1676C608.493 -79.6819 609.565 -79.3419 610.726 -79.3419C614.924 -79.3419 618.319 -83.0329 618.319 -87.5981C618.319 -92.1147 614.924 -95.8543 610.726 -95.8543C606.528 -95.8543 603.178 -92.1633 603.178 -87.5981C603.178 -84.7813 604.474 -82.353 606.439 -80.8475L570.397 -13.001C569.414 -13.5353 568.298 -13.8266 567.136 -13.8266C563.162 -13.8266 559.946 -10.4756 559.633 -6.25039H487.504C487.192 -10.4756 483.976 -13.8266 480.001 -13.8266C478.885 -13.8266 477.768 -13.5352 476.83 -13.0496L440.833 -80.8475C442.798 -82.353 444.093 -84.8299 444.093 -87.5981C444.093 -92.1147 440.699 -95.8543 436.501 -95.8543C432.347 -95.8543 428.908 -92.1633 428.908 -87.5981C428.908 -83.0329 432.303 -79.3419 436.501 -79.3419C437.662 -79.3419 438.734 -79.6333 439.716 -80.1676L475.714 -12.3697C473.704 -10.8641 472.409 -8.38729 472.409 -5.57047C472.409 -2.75365 473.704 -0.276794 475.714 1.22875L439.716 69.0266C438.734 68.541 437.662 68.201 436.501 68.201C432.526 68.201 429.31 71.552 428.997 75.7773H356.913C356.601 71.552 353.385 68.201 349.41 68.201C348.249 68.201 347.177 68.4924 346.195 69.0266L310.153 1.18018C312.118 -0.325371 313.368 -2.75365 313.368 -5.5219C313.368 -10.0871 309.974 -13.7781 305.776 -13.7781C301.801 -13.7781 298.585 -10.427 298.272 -6.20181H226.278C225.965 -10.427 222.749 -13.7781 218.775 -13.7781C214.576 -13.7781 211.182 -10.0871 211.182 -5.5219C211.182 -2.70508 212.477 -0.228218 214.487 1.27733L178.49 69.0752C177.507 68.5895 176.435 68.2496 175.274 68.2496C171.299 68.2496 168.083 71.6006 167.771 75.8259H95.6867C95.3741 71.6006 92.1584 68.2496 88.1835 68.2496C87.0223 68.2496 85.9504 68.541 84.9679 69.0752L48.9258 1.27733C50.8463 -0.228218 52.1415 -2.65649 52.1415 -5.42474C52.1415 -9.98993 48.7472 -13.681 44.549 -13.681C40.3508 -13.681 36.9565 -9.98993 36.9565 -5.42474C36.9565 -0.908127 40.3508 2.78285 44.549 2.78285C45.7102 2.78285 46.8267 2.4429 47.8093 1.95724L83.8513 69.8037C81.8862 71.3092 80.591 73.7861 80.591 76.5543C80.591 79.3712 81.8862 81.7995 83.8513 83.305L47.854 151.151C46.8714 150.666 45.7995 150.326 44.6383 150.326C40.6634 150.326 37.4478 153.677 37.1351 157.902H-34.9043C-35.2169 153.677 -38.4326 150.326 -42.4075 150.326C-46.6057 150.326 -50 154.017 -50 158.533C-50 163.147 -46.6057 166.838 -42.4522 166.838ZM309.125 315.158C308.143 314.673 307.071 314.381 305.954 314.381C301.979 314.381 298.764 317.732 298.451 321.909H226.367C226.054 317.684 222.839 314.381 218.864 314.381C217.703 314.381 216.586 314.721 215.604 315.207L179.562 247.36C181.527 245.855 182.822 243.426 182.822 240.61C182.822 237.793 181.527 235.365 179.562 233.859L215.559 166.013C216.541 166.498 217.613 166.838 218.775 166.838C222.749 166.838 225.965 163.487 226.278 159.262H298.362C298.674 163.487 301.89 166.838 305.865 166.838C307.026 166.838 308.098 166.547 309.081 166.013L345.078 233.859C343.113 235.365 341.818 237.841 341.818 240.61C341.818 243.426 343.113 245.855 345.078 247.36L309.125 315.158ZM349.455 84.8105C353.43 84.8105 356.645 81.4595 356.958 77.2343H429.042C429.355 81.4595 432.57 84.8105 436.545 84.8105C437.707 84.8105 438.778 84.5191 439.761 83.9849L475.758 151.783C473.793 153.288 472.498 155.765 472.498 158.533C472.498 161.35 473.793 163.779 475.758 165.284L439.761 233.131C438.778 232.645 437.707 232.305 436.545 232.305C432.57 232.305 429.355 235.656 429.042 239.881H356.958C356.645 235.656 353.43 232.305 349.455 232.305C348.294 232.305 347.222 232.596 346.239 233.131L310.242 165.333C312.207 163.827 313.502 161.35 313.502 158.582C313.502 155.765 312.207 153.337 310.242 151.831L346.239 83.9849C347.222 84.5191 348.294 84.8105 349.455 84.8105ZM570.397 315.158C569.414 314.673 568.342 314.381 567.226 314.381C563.251 314.381 560.035 317.732 559.723 321.909H487.638C487.326 317.684 484.11 314.381 480.135 314.381C478.974 314.381 477.857 314.721 476.875 315.207L440.833 247.36C442.798 245.855 444.093 243.426 444.093 240.61C444.093 237.793 442.798 235.365 440.833 233.859L476.83 166.013C477.813 166.498 478.885 166.838 480.046 166.838C484.021 166.838 487.236 163.487 487.549 159.262H559.633C559.946 163.487 563.162 166.838 567.136 166.838C568.298 166.838 569.37 166.547 570.352 166.013L606.349 233.859C604.384 235.365 603.089 237.841 603.089 240.61C603.089 243.426 604.384 245.855 606.349 247.36L570.397 315.158ZM700.988 233.179C700.005 232.693 698.933 232.353 697.772 232.353C693.797 232.353 690.582 235.705 690.269 239.93H618.229C617.917 235.705 614.701 232.353 610.726 232.353C609.565 232.353 608.493 232.645 607.511 233.179L571.513 165.381C573.478 163.876 574.774 161.399 574.774 158.631C574.774 155.814 573.478 153.385 571.513 151.88L607.511 84.0335C608.493 84.5191 609.565 84.8591 610.726 84.8591C614.701 84.8591 617.917 81.5081 618.229 77.2828H690.269C690.582 81.5081 693.797 84.8591 697.772 84.8591C698.933 84.8591 700.005 84.5677 700.988 84.0335L736.985 151.831C735.02 153.337 733.725 155.814 733.725 158.582C733.725 161.399 735.02 163.827 736.985 165.333L700.988 233.179ZM832.695 165.333C834.66 163.827 835.956 161.35 835.956 158.582C835.956 155.765 834.66 153.337 832.695 151.831L868.737 83.9849C869.72 84.4706 870.792 84.8105 871.953 84.8105C875.928 84.8105 879.144 81.4595 879.456 77.2343H951.496C951.808 81.4595 955.024 84.8105 958.999 84.8105C960.16 84.8105 961.232 84.5191 962.214 83.9849L998.212 151.831C996.247 153.337 994.952 155.814 994.952 158.582C994.952 161.399 996.247 163.827 998.212 165.333L962.214 233.179C961.232 232.693 960.16 232.353 958.999 232.353C955.024 232.353 951.808 235.705 951.496 239.93H879.456C879.144 235.705 875.928 232.353 871.953 232.353C870.792 232.353 869.72 232.645 868.737 233.179L832.695 165.333ZM1092.89 315.158C1091.91 314.673 1090.84 314.381 1089.72 314.381C1085.75 314.381 1082.53 317.732 1082.22 321.909H1010.18C1009.87 317.684 1006.65 314.381 1002.68 314.381C1001.52 314.381 1000.4 314.721 999.418 315.207L963.376 247.36C965.341 245.855 966.636 243.426 966.636 240.61C966.636 237.793 965.341 235.365 963.376 233.859L999.373 166.013C1000.36 166.498 1001.43 166.838 1002.59 166.838C1006.56 166.838 1009.78 163.487 1010.09 159.262H1082.18C1082.49 163.487 1085.75 166.838 1089.68 166.838C1090.84 166.838 1091.91 166.547 1092.89 166.013L1128.89 233.859C1126.93 235.365 1125.63 237.841 1125.63 240.61C1125.63 243.426 1126.93 245.855 1128.89 247.36L1092.89 315.158ZM1390.12 233.859C1388.15 235.365 1386.86 237.841 1386.86 240.61C1386.86 243.426 1388.15 245.855 1390.12 247.36L1354.12 315.158C1353.14 314.673 1352.07 314.381 1350.95 314.381C1346.98 314.381 1343.76 317.732 1343.45 321.909H1271.41C1271.1 317.684 1267.88 314.381 1263.9 314.381C1262.74 314.381 1261.63 314.721 1260.64 315.207L1224.6 247.36C1226.57 245.855 1227.86 243.426 1227.86 240.61C1227.86 237.793 1226.57 235.365 1224.6 233.859L1260.6 166.013C1261.58 166.498 1262.65 166.838 1263.82 166.838C1267.79 166.838 1271.01 163.487 1271.32 159.262H1343.36C1343.67 163.487 1346.89 166.838 1350.86 166.838C1352.02 166.838 1353.09 166.547 1354.08 166.013L1390.12 233.859ZM1259.48 151.831C1257.52 153.337 1256.22 155.814 1256.22 158.582C1256.22 161.399 1257.52 163.827 1259.48 165.333L1223.49 233.179C1222.5 232.693 1221.43 232.353 1220.27 232.353C1216.3 232.353 1213.08 235.705 1212.77 239.93H1140.73C1140.42 235.705 1137.2 232.353 1133.22 232.353C1132.06 232.353 1130.99 232.645 1130.01 233.179L1094.01 165.333C1095.98 163.827 1097.27 161.35 1097.27 158.582C1097.27 155.765 1095.98 153.337 1094.01 151.831L1130.01 83.9849C1130.99 84.4706 1132.06 84.8105 1133.22 84.8105C1137.2 84.8105 1140.42 81.4595 1140.73 77.2343H1212.77C1213.08 81.4595 1216.3 84.8105 1220.27 84.8105C1221.43 84.8105 1222.5 84.5191 1223.49 83.9849L1259.48 151.831ZM999.328 2.00582C1000.31 2.49148 1001.38 2.78285 1002.5 2.78285C1006.47 2.78285 1009.69 -0.568176 1010 -4.7934H1082.04C1082.35 -0.568176 1085.57 2.78285 1089.55 2.78285C1090.71 2.78285 1091.82 2.4429 1092.81 1.95724L1128.85 69.8037C1126.88 71.3092 1125.59 73.7861 1125.59 76.5543C1125.59 79.3712 1126.88 81.7995 1128.85 83.305L1092.85 151.151C1091.87 150.666 1090.8 150.326 1089.63 150.326C1085.66 150.326 1082.44 153.677 1082.13 157.902H1010.05C1009.73 153.677 1006.52 150.326 1002.54 150.326C1001.38 150.326 1000.31 150.617 999.328 151.151L963.331 83.305C965.296 81.7995 966.591 79.3226 966.591 76.5543C966.591 73.7375 965.296 71.3092 963.331 69.8037L999.328 2.00582ZM738.057 2.00582C739.04 2.49148 740.111 2.78285 741.228 2.78285C745.203 2.78285 748.419 -0.568176 748.731 -4.7934H820.771C821.083 -0.568176 824.299 2.78285 828.274 2.78285C829.435 2.78285 830.552 2.4429 831.534 1.95724L867.576 69.8037C865.611 71.3092 864.316 73.7861 864.316 76.5543C864.316 79.3712 865.611 81.7995 867.576 83.305L831.534 151.151C830.552 150.666 829.48 150.326 828.318 150.326C824.344 150.326 821.128 153.677 820.815 157.902H748.776C748.419 153.677 745.248 150.326 741.273 150.326C740.112 150.326 739.04 150.617 738.057 151.151L702.06 83.305C704.025 81.7995 705.32 79.3226 705.32 76.5543C705.32 73.7375 704.025 71.3092 702.06 69.8037L738.057 2.00582ZM476.83 2.00582C477.813 2.49148 478.885 2.78285 480.001 2.78285C483.976 2.78285 487.192 -0.568176 487.504 -4.7934H559.544C559.857 -0.568176 563.072 2.78285 567.047 2.78285C568.208 2.78285 569.325 2.4429 570.307 1.95724L606.349 69.8037C604.384 71.3092 603.089 73.7861 603.089 76.5543C603.089 79.3712 604.384 81.7995 606.349 83.305L570.352 151.151C569.37 150.666 568.298 150.326 567.136 150.326C563.162 150.326 559.946 153.677 559.633 157.902H487.549C487.236 153.677 484.021 150.326 480.046 150.326C478.885 150.326 477.813 150.617 476.83 151.151L440.833 83.305C442.798 81.7995 444.093 79.3226 444.093 76.5543C444.093 73.7375 442.798 71.3092 440.833 69.8037L476.83 2.00582ZM215.559 2.00582C216.541 2.49148 217.613 2.78285 218.73 2.78285C222.705 2.78285 225.92 -0.568176 226.233 -4.7934H298.317C298.63 -0.568176 301.845 2.78285 305.82 2.78285C306.982 2.78285 308.098 2.4429 309.081 1.95724L345.123 69.8037C343.158 71.3092 341.862 73.7861 341.862 76.5543C341.862 79.3712 343.158 81.7995 345.123 83.305L309.125 151.151C308.143 150.666 307.071 150.326 305.91 150.326C301.935 150.326 298.719 153.677 298.407 157.902H226.322C226.01 153.677 222.794 150.326 218.819 150.326C217.658 150.326 216.586 150.617 215.604 151.151L179.606 83.305C181.571 81.7995 182.866 79.3226 182.866 76.5543C182.866 73.7375 181.571 71.3092 179.606 69.8037L215.559 2.00582ZM84.9679 83.9849C85.9504 84.4706 87.0223 84.8105 88.1835 84.8105C92.1584 84.8105 95.3741 81.4595 95.6867 77.2343H167.771C168.083 81.4595 171.344 84.8105 175.274 84.8105C176.435 84.8105 177.507 84.5191 178.49 83.9849L214.487 151.783C212.522 153.288 211.227 155.765 211.227 158.533C211.227 161.35 212.522 163.779 214.487 165.284L178.49 233.131C177.507 232.645 176.435 232.305 175.274 232.305C171.299 232.305 168.083 235.656 167.771 239.881H95.6867C95.3741 235.656 92.1584 232.305 88.1835 232.305C87.0223 232.305 85.9504 232.596 84.9679 233.131L48.9705 165.333C50.9356 163.827 52.2308 161.35 52.2308 158.582C52.2308 155.765 50.9356 153.337 48.9705 151.831L84.9679 83.9849Z" fill="url(#paint0_linear_5_1061)"/>
<defs>
<linearGradient id="paint0_linear_5_1061" x1="180.628" y1="158.581" x2="1262.52" y2="158.581" gradientUnits="userSpaceOnUse">
<stop stop-color="#4E7853"/>
<stop offset="0.5" stop-color="#8CBF5F"/>
<stop offset="1" stop-color="#52AC62"/>
</linearGradient>
</defs>
</svg>
